<svg width="930" height="692" viewBox="0 0 930 692" fill="none" xmlns="http://www.w3.org/2000/svg">
<path fill-rule="evenodd" clip-rule="evenodd" d="M166.598 247.227C172.763 246.662 179.665 246.278 184.856 249.614C190.195 253.045 191.558 260.13 194.959 265.451C197.705 269.747 200.955 273.62 203.139 278.22C205.298 282.765 205.733 287.837 207.772 292.436C210.565 298.736 218.626 303.734 217.459 310.515C216.355 316.931 207.943 319.344 202.509 323.018C197.984 326.077 192.845 327.84 188.023 330.417C183.426 332.873 179.487 336.454 174.497 337.985C169.309 339.578 163.843 339.412 158.411 339.506C152.234 339.613 145.604 341.273 140.058 338.583C134.552 335.911 131.74 329.825 128.221 324.858C124.775 319.993 119.884 315.396 119.437 309.474C118.978 303.398 123.974 298.295 125.776 292.469C127.273 287.631 128.456 282.814 129.23 277.813C130.265 271.12 126.844 263.031 131.145 257.761C135.18 252.816 143.45 254.675 149.605 252.846C155.374 251.132 160.6 247.777 166.598 247.227Z" fill="url(#paint0_linear_37_158)" fill-opacity="0.7"/>
<path fill-rule="evenodd" clip-rule="evenodd" d="M374.413 217.949C380.578 217.384 387.48 217.001 392.671 220.337C398.01 223.767 399.373 230.852 402.774 236.174C405.52 240.469 408.77 244.342 410.954 248.942C413.112 253.488 413.548 258.56 415.587 263.158C418.38 269.458 426.441 274.456 425.274 281.237C424.17 287.653 415.758 290.066 410.324 293.74C405.799 296.799 400.66 298.562 395.838 301.139C391.241 303.595 387.302 307.176 382.312 308.708C377.123 310.3 371.658 310.134 366.225 310.228C360.048 310.335 353.419 311.996 347.873 309.305C342.367 306.633 339.555 300.547 336.036 295.58C332.59 290.715 327.699 286.119 327.252 280.196C326.793 274.12 331.789 269.017 333.591 263.191C335.088 258.353 336.271 253.536 337.045 248.535C338.08 241.842 334.658 233.753 338.959 228.483C342.995 223.538 351.265 225.397 357.42 223.568C363.189 221.854 368.414 218.499 374.413 217.949Z" fill="url(#paint1_linear_37_158)" fill-opacity="0.7"/>
<path fill-rule="evenodd" clip-rule="evenodd" d="M535.153 293.727C541.319 293.162 548.22 292.778 553.412 296.114C558.751 299.545 560.114 306.63 563.515 311.951C566.26 316.247 569.511 320.12 571.695 324.72C573.853 329.265 574.288 334.337 576.328 338.936C579.121 345.236 587.182 350.234 586.015 357.015C584.911 363.431 576.499 365.844 571.064 369.518C566.54 372.577 561.401 374.34 556.578 376.917C551.982 379.373 548.043 382.954 543.053 384.485C537.864 386.078 532.398 385.911 526.966 386.006C520.789 386.113 514.16 387.773 508.614 385.083C503.107 382.411 500.295 376.325 496.777 371.358C493.331 366.493 488.44 361.896 487.993 355.974C487.534 349.898 492.53 344.795 494.332 338.969C495.828 334.131 497.012 329.314 497.785 324.313C498.821 317.62 495.399 309.531 499.7 304.261C503.736 299.316 512.005 301.175 518.161 299.346C523.93 297.632 529.155 294.277 535.153 293.727Z" fill="url(#paint2_linear_37_158)" fill-opacity="0.7"/>
<path fill-rule="evenodd" clip-rule="evenodd" d="M767.079 31.375C773.245 30.8098 780.146 30.4264 785.338 33.7624C790.677 37.193 792.04 44.278 795.441 49.5995C798.186 53.8951 801.437 57.7683 803.621 62.3681C805.779 66.9136 806.214 71.9855 808.253 76.5844C811.047 82.8837 819.108 87.8821 817.941 94.6627C816.837 101.079 808.425 103.492 802.99 107.166C798.466 110.225 793.327 111.988 788.504 114.565C783.908 117.021 779.969 120.602 774.979 122.134C769.79 123.726 764.324 123.56 758.892 123.654C752.715 123.761 746.086 125.422 740.54 122.731C735.033 120.059 732.221 113.973 728.703 109.006C725.256 104.141 720.366 99.5446 719.919 93.6217C719.46 87.5457 724.456 82.4433 726.258 76.6167C727.754 71.7789 728.938 66.9622 729.711 61.9614C730.747 55.2678 727.325 47.1794 731.626 41.9093C735.662 36.9638 743.931 38.8231 750.087 36.9941C755.856 35.28 761.081 31.9249 767.079 31.375Z" fill="url(#paint3_linear_37_158)" fill-opacity="0.7"/>
<path fill-rule="evenodd" clip-rule="evenodd" d="M761.612 175.693C769.34 176.289 772.703 186.691 779.744 189.93C786.284 192.938 794.482 190.307 800.817 193.726C807.341 197.247 812.39 203.186 816.146 209.577C819.977 216.093 821.765 223.572 822.765 231.065C823.782 238.689 824.728 246.716 822.065 253.932C819.42 261.096 812.63 265.695 807.8 271.611C803.108 277.358 800.589 285.765 793.741 288.621C786.667 291.572 778.618 286.097 771.002 286.961C763.977 287.758 758.075 293.375 751.006 293.469C743.723 293.565 735.589 292.377 730.177 287.502C724.615 282.492 725.804 273.143 721.58 266.962C717.58 261.109 708.224 259.293 706.248 252.484C704.274 245.686 711.708 239.157 711.454 232.084C711.155 223.797 702.793 216.452 704.661 208.373C706.404 200.832 714.007 195.712 720.744 191.901C727.228 188.233 735.439 189.791 742.364 187.045C749.348 184.275 754.122 175.115 761.612 175.693Z" fill="url(#paint4_linear_37_158)" fill-opacity="0.7"/>
<path fill-rule="evenodd" clip-rule="evenodd" d="M670.909 425.415C678.636 426.011 681.999 436.413 689.04 439.652C695.58 442.66 703.778 440.029 710.113 443.448C716.637 446.969 721.686 452.908 725.443 459.299C729.273 465.816 731.061 473.294 732.061 480.787C733.078 488.411 734.024 496.438 731.361 503.654C728.717 510.819 721.926 515.417 717.096 521.333C712.404 527.08 709.885 535.487 703.038 538.344C695.963 541.295 687.915 535.819 680.298 536.683C673.274 537.48 667.372 543.097 660.303 543.191C653.019 543.288 644.885 542.099 639.473 537.224C633.911 532.214 635.1 522.865 630.877 516.684C626.877 510.831 617.521 509.015 615.544 502.206C613.57 495.409 621.004 488.88 620.75 481.806C620.452 473.519 612.089 466.174 613.957 458.095C615.7 450.554 623.304 445.434 630.04 441.623C636.524 437.955 644.735 439.514 651.66 436.767C658.644 433.998 663.418 424.837 670.909 425.415Z" fill="url(#paint5_linear_37_158)" fill-opacity="0.7"/>
<path fill-rule="evenodd" clip-rule="evenodd" d="M637.612 574.1C645.34 574.697 648.703 585.098 655.744 588.337C662.284 591.346 670.482 588.715 676.817 592.134C683.341 595.655 688.39 601.593 692.146 607.984C695.977 614.501 697.765 621.98 698.765 629.472C699.782 637.096 700.728 645.123 698.065 652.339C695.42 659.504 688.63 664.102 683.8 670.018C679.108 675.765 676.589 684.172 669.741 687.029C662.667 689.98 654.618 684.504 647.002 685.368C639.977 686.165 634.075 691.783 627.006 691.876C619.723 691.973 611.589 690.785 606.177 685.909C600.615 680.899 601.804 671.55 597.58 665.37C593.58 659.516 584.224 657.7 582.248 650.892C580.274 644.094 587.708 637.565 587.454 630.491C587.155 622.204 578.793 614.859 580.661 606.78C582.404 599.239 590.007 594.119 596.744 590.308C603.228 586.64 611.439 588.199 618.364 585.453C625.348 582.683 630.122 573.522 637.612 574.1Z" fill="url(#paint6_linear_37_158)" fill-opacity="0.7"/>
<path fill-rule="evenodd" clip-rule="evenodd" d="M365.501 417.378C373.229 417.974 376.591 428.376 383.632 431.615C390.172 434.623 398.371 431.992 404.706 435.411C411.23 438.932 416.279 444.871 420.035 451.262C423.866 457.779 425.654 465.257 426.653 472.75C427.671 480.374 428.617 488.401 425.954 495.617C423.309 502.781 416.519 507.38 411.689 513.296C406.996 519.043 404.477 527.45 397.63 530.306C390.556 533.258 382.507 527.782 374.891 528.646C367.866 529.443 361.964 535.06 354.895 535.154C347.611 535.251 339.478 534.062 334.066 529.187C328.504 524.177 329.693 514.828 325.469 508.647C321.469 502.794 312.113 500.978 310.136 494.169C308.163 487.372 315.597 480.842 315.342 473.769C315.044 465.482 306.682 458.137 308.55 450.058C310.293 442.517 317.896 437.397 324.633 433.586C331.117 429.918 339.328 431.477 346.253 428.73C353.236 425.961 358.011 416.8 365.501 417.378Z" fill="url(#paint7_linear_37_158)" fill-opacity="0.7"/>
<path fill-rule="evenodd" clip-rule="evenodd" d="M57.2235 435.174C64.9508 435.771 68.3136 446.172 75.3546 449.411C81.8947 452.42 90.0929 449.789 96.428 453.208C102.952 456.729 108.001 462.667 111.757 469.058C115.588 475.575 117.376 483.054 118.376 490.546C119.393 498.17 120.339 506.198 117.676 513.413C115.031 520.578 108.241 525.176 103.411 531.092C98.7187 536.839 96.1997 545.246 89.3524 548.103C82.278 551.054 74.2294 545.578 66.613 546.442C59.5886 547.239 53.6864 552.857 46.6175 552.95C39.3336 553.047 31.2002 551.859 25.7878 546.983C20.2259 541.973 21.4149 532.624 17.1915 526.444C13.1915 520.59 3.83554 518.774 1.85872 511.966C-0.114935 505.168 7.31919 498.639 7.0647 491.565C6.76657 483.278 -1.59614 475.933 0.271744 467.854C2.01521 460.313 9.61836 455.193 16.355 451.382C22.8391 447.714 31.0501 449.273 37.9749 446.527C44.9587 443.757 49.7329 434.596 57.2235 435.174Z" fill="url(#paint8_linear_37_158)" fill-opacity="0.7"/>
<path fill-rule="evenodd" clip-rule="evenodd" d="M374.686 0.0261727C382.414 0.622499 385.777 11.0243 392.818 14.2631C399.358 17.2714 407.556 14.6405 413.891 18.0596C420.415 21.5805 425.464 27.5191 429.22 33.9101C433.051 40.4268 434.839 47.9055 435.839 55.3982C436.856 63.0219 437.802 71.0494 435.139 78.2649C432.494 85.4296 425.704 90.0282 420.874 95.9439C416.182 101.691 413.663 110.098 406.815 112.955C399.741 115.906 391.692 110.43 384.076 111.294C377.052 112.091 371.149 117.709 364.08 117.802C356.797 117.899 348.663 116.711 343.251 111.835C337.689 106.825 338.878 97.4761 334.654 91.2956C330.654 85.442 321.298 83.626 319.322 76.8174C317.348 70.0198 324.782 63.4907 324.528 56.4169C324.23 48.1301 315.867 40.7852 317.735 32.7062C319.478 25.1653 327.081 20.0449 333.818 16.2341C340.302 12.5663 348.513 14.1248 355.438 11.3784C362.422 8.60875 367.196 -0.551896 374.686 0.0261727Z" fill="url(#paint9_linear_37_158)" fill-opacity="0.7"/>
<path fill-rule="evenodd" clip-rule="evenodd" d="M867.816 349.637C875.543 350.234 878.906 360.635 885.947 363.874C892.487 366.883 900.686 364.252 907.021 367.671C913.544 371.192 918.593 377.13 922.35 383.521C926.181 390.038 927.969 397.517 928.968 405.009C929.986 412.633 930.932 420.661 928.268 427.876C925.624 435.041 918.834 439.639 914.004 445.555C909.311 451.302 906.792 459.709 899.945 462.566C892.871 465.517 884.822 460.041 877.206 460.905C870.181 461.702 864.279 467.32 857.21 467.413C849.926 467.51 841.793 466.322 836.38 461.446C830.819 456.436 832.007 447.087 827.784 440.907C823.784 435.053 814.428 433.237 812.451 426.429C810.478 419.631 817.912 413.102 817.657 406.028C817.359 397.741 808.996 390.396 810.864 382.317C812.608 374.776 820.211 369.656 826.948 365.845C833.432 362.177 841.643 363.736 848.568 360.99C855.551 358.22 860.325 349.059 867.816 349.637Z" fill="url(#paint10_linear_37_158)" fill-opacity="0.7"/>
<defs>
<linearGradient id="paint0_linear_37_158" x1="465" y1="0" x2="465" y2="691.882" gradientUnits="userSpaceOnUse">
<stop stop-color="#5937C0"/>
<stop offset="1" stop-color="#8F74E1" stop-opacity="0.73"/>
</linearGradient>
<linearGradient id="paint1_linear_37_158" x1="465" y1="0" x2="465" y2="691.882" gradientUnits="userSpaceOnUse">
<stop stop-color="#5937C0"/>
<stop offset="1" stop-color="#8F74E1" stop-opacity="0.73"/>
</linearGradient>
<linearGradient id="paint2_linear_37_158" x1="465" y1="0" x2="465" y2="691.882" gradientUnits="userSpaceOnUse">
<stop stop-color="#5937C0"/>
<stop offset="1" stop-color="#8F74E1" stop-opacity="0.73"/>
</linearGradient>
<linearGradient id="paint3_linear_37_158" x1="465" y1="0" x2="465" y2="691.882" gradientUnits="userSpaceOnUse">
<stop stop-color="#5937C0"/>
<stop offset="1" stop-color="#8F74E1" stop-opacity="0.73"/>
</linearGradient>
<linearGradient id="paint4_linear_37_158" x1="465" y1="0" x2="465" y2="691.882" gradientUnits="userSpaceOnUse">
<stop stop-color="#240D6B"/>
<stop offset="1" stop-color="#7953EE"/>
</linearGradient>
<linearGradient id="paint5_linear_37_158" x1="870.296" y1="349.611" x2="870.296" y2="467.419" gradientUnits="userSpaceOnUse">
<stop stop-color="#472C98"/>
<stop offset="1" stop-color="#521FEB"/>
</linearGradient>
<linearGradient id="paint6_linear_37_158" x1="465" y1="0" x2="465" y2="691.882" gradientUnits="userSpaceOnUse">
<stop stop-color="#756B95"/>
<stop offset="1" stop-color="#4514DC"/>
</linearGradient>
<linearGradient id="paint7_linear_37_158" x1="465" y1="0" x2="465" y2="691.882" gradientUnits="userSpaceOnUse">
<stop stop-color="#D0C3F7"/>
<stop offset="0.260417" stop-color="#2A2539"/>
<stop offset="1" stop-color="#4C20D0"/>
</linearGradient>
<linearGradient id="paint8_linear_37_158" x1="465" y1="0" x2="465" y2="691.882" gradientUnits="userSpaceOnUse">
<stop stop-color="#D0C3F7"/>
<stop offset="0.260417" stop-color="#2A2539"/>
<stop offset="1" stop-color="#4C20D0"/>
</linearGradient>
<linearGradient id="paint9_linear_37_158" x1="870.296" y1="349.611" x2="870.296" y2="467.419" gradientUnits="userSpaceOnUse">
<stop stop-color="#472C98"/>
<stop offset="1" stop-color="#521FEB"/>
</linearGradient>
<linearGradient id="paint10_linear_37_158" x1="870.296" y1="349.611" x2="870.296" y2="467.419" gradientUnits="userSpaceOnUse">
<stop stop-color="#472C98"/>
<stop offset="1" stop-color="#521FEB"/>
</linearGradient>
</defs>
</svg>
