<svg width="28" height="29" viewBox="0 0 28 29" fill="none" xmlns="http://www.w3.org/2000/svg">
<path d="M8.3125 20.7143C7.9625 20.7143 7.65625 20.5783 7.39375 20.3065C7.13125 20.0346 7 19.7174 7 19.3549V16.1151H8.3125V19.3549H19.6875V16.1151H21V19.3549C21 19.7174 20.8687 20.0346 20.6062 20.3065C20.3437 20.5783 20.0375 20.7143 19.6875 20.7143H8.3125ZM14 17.2479L9.77813 12.8752L10.7188 11.901L13.3438 14.6197V6.21428H14.6562V14.6197L17.2812 11.901L18.2219 12.8752L14 17.2479Z" fill="black"/>
<path d="M26.2 14.5C26.2 20.9324 20.7677 26.2 14 26.2C7.23226 26.2 1.8 20.9324 1.8 14.5C1.8 8.06755 7.23226 2.8 14 2.8C20.7677 2.8 26.2 8.06755 26.2 14.5Z" stroke="black" stroke-width="1.6"/>
</svg>
