<svg width="227" height="152" viewBox="0 0 227 152" fill="none" xmlns="http://www.w3.org/2000/svg">
<g clip-path="url(#clip0_39_849)">
<path d="M48.1693 35.6096L56.7544 47.8591C56.7544 47.8591 64.074 51.0762 72.6287 57.5357L70.5809 60.8769C70.5809 60.8769 56.4608 54.8336 52.8473 52.2801L46.2489 41.4679L48.1693 35.6096Z" fill="#A0616A"/>
<path d="M77.7623 63.4687C78.5817 62.2155 77.6089 60.0304 75.5896 58.5881C73.5702 57.1459 71.2691 56.9926 70.4498 58.2457C69.6305 59.4989 70.6033 61.684 72.6226 63.1263C74.6419 64.5686 76.943 64.7219 77.7623 63.4687Z" fill="#A0616A"/>
<path d="M43.9728 25.1525L46.7823 24.3195C46.7823 24.3195 48.4178 24.3228 49.3404 26.0018C50.2631 27.6808 56.7957 42.6511 56.486 43.2311C56.1764 43.811 55.7442 43.9391 56.299 44.2628C56.8539 44.5864 57.3619 44.4223 56.9837 44.9073C56.6055 45.3922 57.1281 46.4576 57.1281 46.4576L49.9212 52.0154L43.9728 25.1525V25.1525Z" fill="#6C63FF"/>
<path d="M33.0726 148.251L36.5002 148.25L38.1308 134.432L33.0719 134.432L33.0726 148.251Z" fill="#A0616A"/>
<path d="M44.8161 148.17C44.9228 148.357 44.9791 148.964 44.9791 149.182C44.9791 149.854 44.4583 150.398 43.8158 150.398H33.2008C32.7625 150.398 32.4072 150.027 32.4072 149.569V149.107C32.4072 149.107 31.882 147.719 32.9632 146.007C32.9632 146.007 34.3069 147.347 36.3147 145.249L36.9068 144.128L41.1926 147.404L43.5682 147.709C44.088 147.776 44.5488 147.699 44.8161 148.17V148.17Z" fill="#2F2E41"/>
<path d="M45.4783 144.759L48.8586 145.353L52.6571 132.007L47.6681 131.131L45.4783 144.759Z" fill="#A0616A"/>
<path d="M57.0724 146.713C57.1478 146.917 57.1073 147.524 57.0726 147.74C56.9662 148.402 56.3662 148.849 55.7326 148.738L45.2643 146.899C44.8321 146.823 44.5405 146.396 44.6131 145.944L44.6864 145.488C44.6864 145.488 44.3886 144.028 45.726 142.528C45.726 142.528 46.8387 144.082 49.1515 142.36L49.9131 141.357L53.6204 145.33L55.9147 146.043C56.4167 146.199 56.8833 146.203 57.0724 146.713H57.0724Z" fill="#2F2E41"/>
<path d="M52.5047 73.8522C52.5047 73.8522 57.1099 79.4875 57.1099 84.6531C57.1099 89.8188 57.2222 106.046 57.2222 106.046C57.2222 106.046 54.5265 131.379 53.8526 133.492C53.1786 135.606 52.8417 139.128 52.8417 139.128L46.327 137.484C46.327 137.484 45.4284 113.651 48.1241 108.016L41.6094 88.7622L39.363 143.237H31.8002C31.8002 143.237 27.9061 114.591 29.9279 107.077C29.9279 107.077 25.435 78.4308 26.5582 76.7872C27.6814 75.1436 52.5047 73.8522 52.5047 73.8522Z" fill="#2F2E41"/>
<path d="M35.7686 17.734L41.834 18.2036L43.8558 21.7257C43.8558 21.7257 48.5734 23.8389 49.2473 26.8914C49.9212 29.9438 50.1459 65.634 50.1459 65.634L53.5156 70.7997L53.2909 75.261L26.3335 76.6698V72.3805L23.8624 67.2776C23.8624 67.2776 26.5582 26.4218 27.2321 26.1869C27.906 25.9521 33.0729 22.1953 33.0729 22.1953L35.7686 17.734V17.734Z" fill="#6C63FF"/>
<path d="M38.5137 16.8603C42.732 16.8603 46.1516 13.286 46.1516 8.87695C46.1516 4.46787 42.732 0.893616 38.5137 0.893616C34.2954 0.893616 30.8757 4.46787 30.8757 8.87695C30.8757 13.286 34.2954 16.8603 38.5137 16.8603Z" fill="#A0616A"/>
<path d="M44.6146 2.45571C44.226 1.3036 43.1478 0.604641 41.9793 0.631866C41.9298 0.633006 41.8803 0.632528 41.8313 0.630423C41.2428 0.605276 40.678 0.3952 40.101 0.27196C39.0256 0.0422515 37.8917 0.119158 36.8537 0.492185C36.531 0.608141 36.208 0.753952 35.8668 0.753992C35.5256 0.754042 35.154 0.5585 35.0708 0.212679C35.051 0.52578 35.0313 0.838864 35.0116 1.15195C34.9006 0.898544 34.7896 0.645123 34.6786 0.391706L34.4562 1.40231L33.7439 0.557702C33.8076 0.929974 33.5999 1.30518 33.3188 1.54319C33.0377 1.78121 32.6904 1.91287 32.3575 2.06116C30.921 2.70121 29.5721 3.8344 29.1582 5.4083C28.8966 6.40268 29.0334 7.45803 29.172 8.47906C29.2945 9.3817 29.4277 10.3155 29.8971 11.0839C30.198 11.5765 30.6317 11.9909 30.815 12.5431C30.9857 13.0578 30.921 13.6471 31.164 14.129C31.408 14.6131 31.9118 14.887 32.4048 15.0709C32.8978 15.2549 33.4219 15.385 33.8465 15.7051C34.271 16.0252 34.7637 16.9473 35.6888 16.8977L35.9873 16.3115C36.2944 16.0499 35.1578 16.2573 35.146 15.8434C35.1341 15.4295 36.5136 15.1738 36.3181 14.8136C36.0182 14.2614 35.6126 13.7807 35.2748 13.253C34.8796 12.6357 34.5689 11.9146 34.7053 11.1613C34.7583 10.8682 34.8895 10.5914 35.0894 10.3786C35.6656 9.7649 36.308 10.0346 36.9324 10.1224C37.3627 10.183 37.8767 10.113 38.1001 9.72388C38.3615 9.26858 38.0702 8.68938 38.1058 8.15971C38.1436 7.59847 38.5504 7.13825 38.9931 6.81827C39.4359 6.49831 39.9386 6.26519 40.3369 5.88675C40.7352 5.50827 41.0189 4.91702 40.8452 4.38447C42.7332 3.56291 43.0222 3.48521 45.0103 3.98623C44.9156 3.46657 44.7829 2.95458 44.6147 2.45571L44.6146 2.45571Z" fill="#2F2E41"/>
<path d="M12.3698 104.562V80.3296C12.3698 79.665 12.6408 79.0289 13.1134 78.5842C13.5859 78.1397 14.2195 77.9246 14.852 77.9943C20.7111 77.1704 26.2294 77.5622 31.2305 79.7994C31.797 79.7994 32.2579 80.2811 32.2579 80.8732V105.19C32.2579 105.782 31.797 106.264 31.2305 106.264C25.7254 104.914 19.9191 105.266 13.9981 106.264C13.1002 106.264 12.3698 105.5 12.3698 104.562Z" fill="#E6E6E6"/>
<path d="M12.3698 106.719V82.2307C12.3698 80.9358 13.3776 79.8823 14.6165 79.8823C20.2192 78.3501 25.7573 78.3475 31.2305 79.8823C31.797 79.8823 32.2579 80.364 32.2579 80.9561V105.024C32.2579 105.615 31.7984 106.096 31.233 106.098C25.8363 105.116 20.0554 106.072 13.9981 108.421C13.1002 108.421 12.3698 107.657 12.3698 106.719Z" fill="#F2F2F2"/>
<path d="M25.3073 90.0022H20.0683C18.1867 90.0022 16.656 88.4024 16.656 86.4357C16.656 84.4691 18.1867 82.869 20.0683 82.869H25.3073C27.189 82.869 28.7197 84.4691 28.7197 86.4357C28.7197 88.4024 27.189 90.0022 25.3073 90.0022Z" fill="#E6E6E6"/>
<path d="M30.109 41.9044L29.9088 54.5472C29.9088 54.5472 29.2687 64.4002 27.6793 75.4886L23.8906 75.7412C23.8906 75.7412 24.3568 58.4282 24.1869 53.8726L24.4549 43.7542L30.109 41.9044H30.109Z" fill="#A0616A"/>
<path d="M26.1427 83.3253C27.594 83.2737 28.7032 81.1608 28.6201 78.6059C28.5371 76.051 27.2932 74.0217 25.8418 74.0733C24.3905 74.1248 23.2813 76.2378 23.3644 78.7926C23.4475 81.3475 24.6914 83.3768 26.1427 83.3253Z" fill="#A0616A"/>
<path d="M30.0502 25.8085L27.1317 25.9196C27.1317 25.9196 25.5766 26.4487 25.193 28.343C24.8094 30.2373 22.1206 49.8413 22.5859 50.2935C23.0513 50.7457 23.5003 50.7286 23.0676 51.215C22.635 51.7014 22.1033 51.7087 22.6059 52.0485C23.1085 52.3883 22.9249 53.57 22.9249 53.57L30.9967 52.9723L30.0502 25.8085Z" fill="#6C63FF"/>
<path d="M222.603 138.763H144.952C144.501 138.763 144.055 138.691 143.626 138.549L143.58 138.53C119.266 125.9 98.4197 119.007 79.8501 117.456L79.7795 117.441C77.9425 116.834 76.7084 115.073 76.7084 113.059V4.60021C76.7084 3.11923 77.364 1.76778 78.507 0.892574C79.6501 0.0173633 81.0804 -0.228222 82.4319 0.217985L143.818 20.5126C144.185 20.6342 144.567 20.6957 144.952 20.6957H222.603C225.027 20.6957 227 22.7576 227 25.2918V134.167C227 136.702 225.027 138.763 222.603 138.763ZM143.841 137.923C144.201 138.039 144.575 138.099 144.952 138.099H222.603C224.677 138.099 226.364 136.335 226.364 134.167V25.2919C226.364 23.1241 224.677 21.3605 222.603 21.3605H144.952C144.502 21.3605 144.056 21.2886 143.626 21.1466L82.24 0.851995C81.0841 0.469577 79.8607 0.680264 78.883 1.42887C77.9052 2.17763 77.3445 3.33349 77.3445 4.60021V113.059C77.3445 114.769 78.3849 116.266 79.9377 116.796C98.5745 118.36 119.479 125.271 143.841 137.923L143.841 137.923Z" fill="#3F3D56"/>
<path d="M147.026 133.838C168.198 126.007 191.817 126.906 216.91 133.057C220.06 133.83 223.08 131.35 223.08 127.969V28.8683C223.08 26.4617 221.51 24.3576 219.274 23.7859C192.803 17.0202 168.079 15.7755 146.29 23.815C144.693 24.404 142.921 24.0849 141.575 23.0132C123.214 8.40441 104.422 1.0797 85.07 3.25459C82.5383 3.53911 80.6288 5.79421 80.6288 8.45561V108.637C80.6288 111.319 82.5705 113.562 85.1231 113.839C105.953 116.104 125.093 122.966 142.894 133.476C144.154 134.22 145.661 134.343 147.026 133.838Z" fill="#F2F2F2"/>
<path d="M146.346 128.281C144.904 128.281 143.484 127.867 142.232 127.054C127.283 117.35 110.996 111.681 93.8237 110.205C89.7978 109.858 86.6441 106.269 86.6441 102.033V16.4623C86.6441 12.0704 89.9028 8.47163 94.063 8.26955C106.565 7.66021 121.746 13.4879 141.834 26.6029C143.534 27.712 145.6 28.0413 147.504 27.5076C166.595 22.1512 187.29 21.9947 210.773 27.0293C214.418 27.811 217.064 31.193 217.064 35.0713V118.596C217.064 121.117 215.98 123.458 214.088 125.019C212.183 126.592 209.732 127.156 207.363 126.567C185.149 121.04 166.074 121.44 149.047 127.788C148.163 128.118 147.25 128.281 146.346 128.281ZM95.8478 8.89155C95.2559 8.89155 94.6722 8.90551 94.0925 8.93375C90.2725 9.11928 87.2802 12.4262 87.2802 16.4623V102.033C87.2802 105.926 90.1774 109.224 93.8758 109.542C111.149 111.027 127.532 116.729 142.568 126.49C144.438 127.704 146.722 127.949 148.833 127.162L148.94 127.475L148.833 127.162C165.979 120.769 185.173 120.363 207.51 125.92C209.689 126.462 211.943 125.944 213.694 124.498C215.432 123.063 216.428 120.912 216.428 118.597V35.0713C216.428 31.5073 213.996 28.3991 210.645 27.6805C187.262 22.6669 166.662 22.8204 147.669 28.1498C145.595 28.7312 143.346 28.3733 141.498 27.1668C122.46 14.738 107.882 8.89155 95.8478 8.89155Z" fill="white"/>
<path d="M144.902 28.0042L144.266 28.0103L145.151 128.129L145.787 128.123L144.902 28.0042Z" fill="white"/>
<path d="M92.845 21.3971L92.6453 22.0281L137.182 37.4308L137.381 36.7998L92.845 21.3971Z" fill="#3F3D56"/>
<path d="M92.845 33.7193L92.6453 34.3504L137.182 49.7531L137.381 49.1221L92.845 33.7193Z" fill="#3F3D56"/>
<path d="M92.845 46.0414L92.6453 46.6725L137.182 62.0752L137.381 61.4441L92.845 46.0414Z" fill="#3F3D56"/>
<path d="M92.845 58.3636L92.6453 58.9946L137.182 74.3973L137.381 73.7663L92.845 58.3636Z" fill="#3F3D56"/>
<path d="M208.998 37.4675H155.62V38.1324H208.998V37.4675Z" fill="#3F3D56"/>
<path d="M208.998 49.1052H155.62V49.77H208.998V49.1052Z" fill="#3F3D56"/>
<path d="M208.998 60.7426H155.62V61.4075H208.998V60.7426Z" fill="#3F3D56"/>
<path d="M208.998 72.3804H155.62V73.0453H208.998V72.3804Z" fill="#3F3D56"/>
<path d="M208.998 84.0179H155.62V84.6827H208.998V84.0179Z" fill="#3F3D56"/>
<path d="M208.998 95.6556H155.62V96.3205H208.998V95.6556Z" fill="#3F3D56"/>
<path d="M17.2566 145.451C16.5996 145.494 16.2364 144.64 16.7335 144.143L16.783 143.938C16.7765 143.921 16.7699 143.905 16.7633 143.888C16.0989 142.232 13.8469 142.244 13.1881 143.902C12.6033 145.374 11.8589 146.849 11.6756 148.405C11.5934 149.092 11.6304 149.792 11.7762 150.466C10.4061 147.338 9.68504 143.922 9.68504 140.487C9.68504 139.623 9.73024 138.76 9.82267 137.899C9.89868 137.195 10.0034 136.495 10.139 135.802C10.8724 132.053 12.4603 128.482 14.7507 125.5C15.8517 124.871 16.7699 123.887 17.3246 122.709C17.5238 122.284 17.68 121.826 17.7539 121.36C17.6286 121.378 17.2814 119.383 17.3759 119.261C17.2013 118.984 16.8888 118.846 16.6981 118.576C15.7495 117.231 14.4428 117.466 13.7605 119.293C12.3032 120.062 12.2891 121.337 13.1833 122.563C13.7522 123.343 13.8304 124.399 14.3296 125.234C14.2782 125.302 14.2248 125.369 14.1734 125.438C13.2317 126.7 12.4172 128.057 11.7305 129.483C11.9246 127.898 11.6381 125.99 11.1497 124.759C10.5937 123.357 9.55154 122.177 8.63382 120.965C7.53148 119.509 5.27104 120.144 5.07683 121.99C5.07495 122.007 5.07312 122.025 5.07133 122.043C5.20764 122.124 5.34118 122.209 5.47163 122.299C6.21568 122.813 5.95854 124.019 5.07691 124.161L5.05695 124.164C5.10626 124.678 5.19048 125.186 5.31372 125.687C4.13639 130.446 6.67815 132.179 10.3074 132.257C10.3876 132.3 10.4656 132.343 10.5458 132.384C10.178 133.466 9.88428 134.576 9.66655 135.701C9.47141 136.695 9.33582 137.7 9.25982 138.709C9.16532 139.982 9.17354 141.262 9.27626 142.533L9.27009 142.488C9.00922 141.088 8.28203 139.78 7.22616 138.874C5.65325 137.524 3.43103 137.026 1.73413 135.941C0.917295 135.418 -0.129419 136.093 0.0131397 137.083L0.0200794 137.131C0.272742 137.238 0.519237 137.363 0.757527 137.502C0.89384 137.583 1.02738 137.668 1.15783 137.758C1.90188 138.272 1.64474 139.478 0.763115 139.62L0.743135 139.623C0.72876 139.626 0.716429 139.628 0.702073 139.63C1.13551 140.706 1.73942 141.704 2.49537 142.565C3.23152 146.719 6.3933 147.113 9.77542 145.904H9.77748C10.1472 147.587 10.6875 149.232 11.3818 150.799H17.113C17.1335 150.733 17.152 150.664 17.1705 150.597C16.6405 150.632 16.1064 150.599 15.5847 150.498C16.0099 149.953 16.4351 149.403 16.8603 148.858C16.8706 148.847 16.8788 148.837 16.887 148.826C17.1027 148.547 17.3205 148.27 17.5362 147.991L17.5363 147.99C17.5498 147.134 17.4515 146.279 17.2568 145.451L17.2566 145.451Z" fill="#F2F2F2"/>
<path d="M81.3585 150.817C81.3585 151.036 81.1899 151.212 80.98 151.212H0.423148C0.21325 151.212 0.0446777 151.036 0.0446777 150.817C0.0446777 150.597 0.21325 150.421 0.423148 150.421H80.98C81.1899 150.421 81.3585 150.597 81.3585 150.817Z" fill="#CCCCCC"/>
<path d="M211.24 129.788C215.28 129.788 218.555 126.365 218.555 122.142C218.555 117.92 215.28 114.496 211.24 114.496C207.2 114.496 203.925 117.92 203.925 122.142C203.925 126.365 207.2 129.788 211.24 129.788Z" fill="#6C63FF"/>
<path d="M214.666 121.854L210.127 119.115C209.915 118.987 209.65 119.147 209.65 119.403V121.81H208.289C208.113 121.81 207.971 121.959 207.971 122.142C207.971 122.326 208.113 122.475 208.289 122.475H209.65V124.881C209.65 125.137 209.915 125.297 210.127 125.169L214.666 122.43C214.878 122.302 214.878 121.982 214.666 121.854Z" fill="white"/>
<path d="M107.075 100.59C107.36 97.1829 108.713 93.9279 110.879 91.3664C112.989 88.8712 115.873 87.1595 118.983 86.4622C120.72 86.0729 122.518 85.997 124.276 86.2592C124.697 86.322 124.686 87.0204 124.261 86.957C121.268 86.5107 118.175 87.056 115.486 88.5002C112.73 89.9806 110.524 92.3883 109.162 95.2917C108.383 96.9521 107.896 98.7642 107.742 100.607C107.705 101.052 107.037 101.039 107.075 100.59Z" fill="white"/>
<path d="M123.536 83.4576L128.676 86.1084C128.863 86.2048 128.894 86.5231 128.735 86.6604L123.869 90.8648C123.539 91.1493 123.076 90.6465 123.408 90.3597L128.274 86.1554L128.333 86.7073L123.192 84.0565C122.806 83.8575 123.153 83.2602 123.536 83.4576Z" fill="white"/>
</g>
<defs>
<clipPath id="clip0_39_849">
<rect width="227" height="151.212" fill="white"/>
</clipPath>
</defs>
</svg>
