<svg width="27" height="25" viewBox="0 0 27 25" fill="none" xmlns="http://www.w3.org/2000/svg">
<mask id="path-1-outside-1_71_4" maskUnits="userSpaceOnUse" x="0" y="0" width="27" height="13" fill="black">
<rect fill="white" width="27" height="13"/>
<path d="M2 8.23887C2 7.64149 2.49907 7.15721 3.1147 7.15721H5.90146C6.51709 7.15721 7.01616 7.64149 7.01616 8.23887V10.4022C7.01616 10.9996 6.51709 11.4839 5.90146 11.4839H3.1147C2.49907 11.4839 2 10.9996 2 10.4022V8.23887Z"/>
<path d="M2 3.08167C2 2.48428 2.49907 2 3.1147 2H5.90146C6.51709 2 7.01616 2.48428 7.01616 3.08167V5.245C7.01616 5.84239 6.51709 6.32666 5.90146 6.32666H3.1147C2.49907 6.32666 2 5.84239 2 5.245V3.08167Z"/>
<path d="M7.57351 3.08169C7.57351 2.4843 8.07258 2.00003 8.68822 2.00003H11.475C12.0906 2.00003 12.5897 2.4843 12.5897 3.08169V5.24502C12.5897 5.84241 12.0906 6.32669 11.475 6.32669H8.68822C8.07258 6.32669 7.57351 5.84241 7.57351 5.24502V3.08169Z"/>
<path d="M7.57351 8.23887C7.57351 7.64149 8.07258 7.15721 8.68822 7.15721H11.475C12.0906 7.15721 12.5897 7.64149 12.5897 8.23887V10.4022C12.5897 10.9996 12.0906 11.4839 11.475 11.4839H8.68822C8.07258 11.4839 7.57351 10.9996 7.57351 10.4022V8.23887Z"/>
<path d="M14.4103 8.23887C14.4103 7.64149 14.9094 7.15721 15.525 7.15721H18.3118C18.9274 7.15721 19.4265 7.64149 19.4265 8.23887V10.4022C19.4265 10.9996 18.9274 11.4839 18.3118 11.4839H15.525C14.9094 11.4839 14.4103 10.9996 14.4103 10.4022V8.23887Z"/>
<path d="M14.4103 3.08167C14.4103 2.48428 14.9094 2 15.525 2H18.3118C18.9274 2 19.4265 2.48428 19.4265 3.08167V5.245C19.4265 5.84239 18.9274 6.32666 18.3118 6.32666H15.525C14.9094 6.32666 14.4103 5.84239 14.4103 5.245V3.08167Z"/>
<path d="M19.9838 3.08169C19.9838 2.4843 20.4829 2.00003 21.0985 2.00003H23.8853C24.5009 2.00003 25 2.4843 25 3.08169V5.24502C25 5.84241 24.5009 6.32669 23.8853 6.32669H21.0985C20.4829 6.32669 19.9838 5.84241 19.9838 5.24502V3.08169Z"/>
<path d="M19.9838 8.23887C19.9838 7.64149 20.4829 7.15721 21.0985 7.15721H23.8853C24.5009 7.15721 25 7.64149 25 8.23887V10.4022C25 10.9996 24.5009 11.4839 23.8853 11.4839H21.0985C20.4829 11.4839 19.9838 10.9996 19.9838 10.4022V8.23887Z"/>
</mask>
<path d="M7.57351 3.08169C7.57351 2.4843 8.07258 2.00003 8.68822 2.00003H11.475C12.0906 2.00003 12.5897 2.4843 12.5897 3.08169V5.24502C12.5897 5.84241 12.0906 6.32669 11.475 6.32669H8.68822C8.07258 6.32669 7.57351 5.84241 7.57351 5.24502V3.08169Z" fill="white"/>
<path d="M7.57351 8.23887C7.57351 7.64149 8.07258 7.15721 8.68822 7.15721H11.475C12.0906 7.15721 12.5897 7.64149 12.5897 8.23887V10.4022C12.5897 10.9996 12.0906 11.4839 11.475 11.4839H8.68822C8.07258 11.4839 7.57351 10.9996 7.57351 10.4022V8.23887Z" fill="white"/>
<path d="M19.9838 3.08169C19.9838 2.4843 20.4829 2.00003 21.0985 2.00003H23.8853C24.5009 2.00003 25 2.4843 25 3.08169V5.24502C25 5.84241 24.5009 6.32669 23.8853 6.32669H21.0985C20.4829 6.32669 19.9838 5.84241 19.9838 5.24502V3.08169Z" fill="white"/>
<path d="M19.9838 8.23887C19.9838 7.64149 20.4829 7.15721 21.0985 7.15721H23.8853C24.5009 7.15721 25 7.64149 25 8.23887V10.4022C25 10.9996 24.5009 11.4839 23.8853 11.4839H21.0985C20.4829 11.4839 19.9838 10.9996 19.9838 10.4022V8.23887Z" fill="white"/>
<path d="M3.10475 8.23887C3.10475 8.24134 3.10447 8.24482 3.10362 8.24884C3.10279 8.25278 3.10161 8.25632 3.10033 8.25927C3.0978 8.26506 3.09556 8.26712 3.09583 8.26686C3.09612 8.26658 3.09758 8.26534 3.10028 8.26423C3.10232 8.26339 3.10659 8.26196 3.1147 8.26196V6.05246C1.9205 6.05246 0.895249 7.00025 0.895249 8.23887H3.10475ZM3.1147 8.26196H5.90146V6.05246H3.1147V8.26196ZM5.90146 8.26196C5.90957 8.26196 5.91384 8.26339 5.91589 8.26423C5.91859 8.26534 5.92005 8.26658 5.92033 8.26686C5.92061 8.26712 5.91836 8.26506 5.91584 8.25927C5.91455 8.25632 5.91337 8.25278 5.91254 8.24883C5.91169 8.24482 5.91141 8.24134 5.91141 8.23887H8.12091C8.12091 7.00026 7.09567 6.05246 5.90146 6.05246V8.26196ZM5.91141 8.23887V10.4022H8.12091V8.23887H5.91141ZM5.91141 10.4022C5.91141 10.3997 5.91169 10.3963 5.91254 10.3922C5.91337 10.3883 5.91455 10.3848 5.91584 10.3818C5.91836 10.376 5.92061 10.374 5.92033 10.3742C5.92005 10.3745 5.91859 10.3757 5.91589 10.3768C5.91384 10.3777 5.90957 10.3791 5.90146 10.3791V12.5886C7.09566 12.5886 8.12091 11.6408 8.12091 10.4022H5.91141ZM5.90146 10.3791H3.1147V12.5886H5.90146V10.3791ZM3.1147 10.3791C3.10659 10.3791 3.10232 10.3777 3.10028 10.3768C3.09758 10.3757 3.09612 10.3745 3.09583 10.3742C3.09556 10.374 3.0978 10.376 3.10033 10.3818C3.10161 10.3848 3.10279 10.3883 3.10362 10.3922C3.10447 10.3963 3.10475 10.3997 3.10475 10.4022H0.895249C0.895249 11.6408 1.9205 12.5886 3.1147 12.5886V10.3791ZM3.10475 10.4022V8.23887H0.895249V10.4022H3.10475ZM3.10475 3.08167C3.10475 3.08413 3.10447 3.08761 3.10362 3.09163C3.10279 3.09557 3.10161 3.09912 3.10033 3.10206C3.0978 3.10786 3.09556 3.10991 3.09583 3.10965C3.09612 3.10937 3.09758 3.10813 3.10028 3.10702C3.10232 3.10618 3.10659 3.10475 3.1147 3.10475V0.895249C1.9205 0.895249 0.895249 1.84305 0.895249 3.08167H3.10475ZM3.1147 3.10475H5.90146V0.895249H3.1147V3.10475ZM5.90146 3.10475C5.90957 3.10475 5.91384 3.10618 5.91589 3.10702C5.91859 3.10813 5.92005 3.10937 5.92033 3.10965C5.92061 3.10991 5.91836 3.10785 5.91584 3.10206C5.91455 3.09912 5.91337 3.09557 5.91254 3.09163C5.91169 3.08761 5.91141 3.08413 5.91141 3.08167H8.12091C8.12091 1.84305 7.09567 0.895249 5.90146 0.895249V3.10475ZM5.91141 3.08167V5.245H8.12091V3.08167H5.91141ZM5.91141 5.245C5.91141 5.24253 5.91169 5.23905 5.91254 5.23504C5.91337 5.23109 5.91455 5.22755 5.91584 5.2246C5.91836 5.21881 5.92061 5.21675 5.92033 5.21701C5.92005 5.21729 5.91859 5.21853 5.91589 5.21964C5.91384 5.22048 5.90957 5.22191 5.90146 5.22191V7.43142C7.09566 7.43142 8.12091 6.48362 8.12091 5.245H5.91141ZM5.90146 5.22191H3.1147V7.43142H5.90146V5.22191ZM3.1147 5.22191C3.10659 5.22191 3.10232 5.22048 3.10028 5.21964C3.09758 5.21853 3.09612 5.21729 3.09583 5.21701C3.09556 5.21675 3.0978 5.21881 3.10033 5.2246C3.10161 5.22755 3.10279 5.23109 3.10362 5.23504C3.10447 5.23905 3.10475 5.24253 3.10475 5.245H0.895249C0.895249 6.48362 1.9205 7.43142 3.1147 7.43142V5.22191ZM3.10475 5.245V3.08167H0.895249V5.245H3.10475ZM8.67826 3.08169C8.67826 3.08416 8.67798 3.08764 8.67714 3.09165C8.67631 3.0956 8.67512 3.09914 8.67384 3.10209C8.67131 3.10788 8.66907 3.10994 8.66934 3.10968C8.66963 3.1094 8.67109 3.10816 8.67379 3.10705C8.67584 3.10621 8.6801 3.10478 8.68822 3.10478V0.895274C7.49401 0.895274 6.46876 1.84307 6.46876 3.08169H8.67826ZM8.68822 3.10478H11.475V0.895274H8.68822V3.10478ZM11.475 3.10478C11.4831 3.10478 11.4874 3.10621 11.4894 3.10705C11.4921 3.10816 11.4936 3.1094 11.4938 3.10967C11.4941 3.10994 11.4919 3.10788 11.4894 3.10209C11.4881 3.09914 11.4869 3.0956 11.4861 3.09165C11.4852 3.08764 11.4849 3.08415 11.4849 3.08169H13.6944C13.6944 1.84307 12.6692 0.895274 11.475 0.895274V3.10478ZM11.4849 3.08169V5.24502H13.6944V3.08169H11.4849ZM11.4849 5.24502C11.4849 5.24256 11.4852 5.23908 11.4861 5.23506C11.4869 5.23112 11.4881 5.22757 11.4894 5.22463C11.4919 5.21883 11.4941 5.21677 11.4938 5.21704C11.4936 5.21732 11.4921 5.21856 11.4894 5.21967C11.4874 5.22051 11.4831 5.22194 11.475 5.22194V7.43144C12.6692 7.43144 13.6944 6.48364 13.6944 5.24502H11.4849ZM11.475 5.22194H8.68822V7.43144H11.475V5.22194ZM8.68822 5.22194C8.6801 5.22194 8.67584 5.22051 8.67379 5.21967C8.67109 5.21856 8.66963 5.21732 8.66934 5.21704C8.66907 5.21678 8.67131 5.21884 8.67384 5.22463C8.67512 5.22757 8.67631 5.23112 8.67714 5.23506C8.67798 5.23908 8.67826 5.24256 8.67826 5.24502H6.46876C6.46876 6.48364 7.49401 7.43144 8.68822 7.43144V5.22194ZM8.67826 5.24502V3.08169H6.46876V5.24502H8.67826ZM8.67826 8.23887C8.67826 8.24134 8.67798 8.24482 8.67714 8.24884C8.67631 8.25278 8.67512 8.25632 8.67384 8.25927C8.67131 8.26506 8.66907 8.26712 8.66934 8.26686C8.66963 8.26658 8.67109 8.26534 8.67379 8.26423C8.67584 8.26339 8.6801 8.26196 8.68822 8.26196V6.05246C7.49401 6.05246 6.46876 7.00025 6.46876 8.23887H8.67826ZM8.68822 8.26196H11.475V6.05246H8.68822V8.26196ZM11.475 8.26196C11.4831 8.26196 11.4874 8.26339 11.4894 8.26423C11.4921 8.26534 11.4936 8.26658 11.4938 8.26686C11.4941 8.26712 11.4919 8.26506 11.4894 8.25927C11.4881 8.25632 11.4869 8.25278 11.4861 8.24884C11.4852 8.24482 11.4849 8.24134 11.4849 8.23887H13.6944C13.6944 7.00025 12.6692 6.05246 11.475 6.05246V8.26196ZM11.4849 8.23887V10.4022H13.6944V8.23887H11.4849ZM11.4849 10.4022C11.4849 10.3997 11.4852 10.3963 11.4861 10.3922C11.4869 10.3883 11.4881 10.3848 11.4894 10.3818C11.4919 10.376 11.4941 10.374 11.4938 10.3742C11.4936 10.3745 11.4921 10.3757 11.4894 10.3768C11.4874 10.3777 11.4831 10.3791 11.475 10.3791V12.5886C12.6692 12.5886 13.6944 11.6408 13.6944 10.4022H11.4849ZM11.475 10.3791H8.68822V12.5886H11.475V10.3791ZM8.68822 10.3791C8.6801 10.3791 8.67584 10.3777 8.67379 10.3768C8.67109 10.3757 8.66963 10.3745 8.66934 10.3742C8.66907 10.374 8.67131 10.376 8.67384 10.3818C8.67512 10.3848 8.67631 10.3883 8.67714 10.3922C8.67798 10.3963 8.67826 10.3997 8.67826 10.4022H6.46876C6.46876 11.6408 7.49401 12.5886 8.68822 12.5886V10.3791ZM8.67826 10.4022V8.23887H6.46876V10.4022H8.67826ZM15.5151 8.23887C15.5151 8.24134 15.5148 8.24482 15.5139 8.24884C15.5131 8.25278 15.5119 8.25632 15.5106 8.25927C15.5081 8.26506 15.5059 8.26712 15.5062 8.26686C15.5064 8.26658 15.5079 8.26534 15.5106 8.26423C15.5126 8.26339 15.5169 8.26196 15.525 8.26196V6.05246C14.3308 6.05246 13.3056 7.00025 13.3056 8.23887H15.5151ZM15.525 8.26196H18.3118V6.05246H15.525V8.26196ZM18.3118 8.26196C18.3199 8.26196 18.3242 8.26339 18.3262 8.26423C18.3289 8.26534 18.3304 8.26658 18.3307 8.26686C18.3309 8.26712 18.3287 8.26506 18.3262 8.25927C18.3249 8.25632 18.3237 8.25278 18.3229 8.24884C18.322 8.24482 18.3217 8.24134 18.3217 8.23887H20.5312C20.5312 7.00025 19.506 6.05246 18.3118 6.05246V8.26196ZM18.3217 8.23887V10.4022H20.5312V8.23887H18.3217ZM18.3217 10.4022C18.3217 10.3997 18.322 10.3963 18.3229 10.3922C18.3237 10.3883 18.3249 10.3848 18.3262 10.3818C18.3287 10.376 18.3309 10.374 18.3307 10.3742C18.3304 10.3745 18.3289 10.3757 18.3262 10.3768C18.3242 10.3777 18.3199 10.3791 18.3118 10.3791V12.5886C19.506 12.5886 20.5312 11.6408 20.5312 10.4022H18.3217ZM18.3118 10.3791H15.525V12.5886H18.3118V10.3791ZM15.525 10.3791C15.5169 10.3791 15.5126 10.3777 15.5106 10.3768C15.5079 10.3757 15.5064 10.3745 15.5062 10.3742C15.5059 10.374 15.5081 10.376 15.5106 10.3818C15.5119 10.3848 15.5131 10.3883 15.5139 10.3922C15.5148 10.3963 15.5151 10.3997 15.5151 10.4022H13.3056C13.3056 11.6408 14.3308 12.5886 15.525 12.5886V10.3791ZM15.5151 10.4022V8.23887H13.3056V10.4022H15.5151ZM15.5151 3.08167C15.5151 3.08413 15.5148 3.08761 15.5139 3.09163C15.5131 3.09557 15.5119 3.09912 15.5106 3.10206C15.5081 3.10786 15.5059 3.10991 15.5061 3.10965C15.5064 3.10937 15.5079 3.10813 15.5106 3.10702C15.5126 3.10618 15.5169 3.10475 15.525 3.10475V0.895249C14.3308 0.895249 13.3056 1.84305 13.3056 3.08167H15.5151ZM15.525 3.10475H18.3118V0.895249H15.525V3.10475ZM18.3118 3.10475C18.3199 3.10475 18.3241 3.10618 18.3262 3.10702C18.3289 3.10813 18.3304 3.10937 18.3306 3.10965C18.3309 3.10991 18.3287 3.10785 18.3261 3.10206C18.3249 3.09912 18.3237 3.09557 18.3228 3.09163C18.322 3.08761 18.3217 3.08413 18.3217 3.08167H20.5312C20.5312 1.84305 19.506 0.895249 18.3118 0.895249V3.10475ZM18.3217 3.08167V5.245H20.5312V3.08167H18.3217ZM18.3217 5.245C18.3217 5.24253 18.322 5.23905 18.3228 5.23504C18.3237 5.23109 18.3249 5.22755 18.3261 5.2246C18.3287 5.21881 18.3309 5.21675 18.3306 5.21701C18.3304 5.21729 18.3289 5.21853 18.3262 5.21964C18.3241 5.22048 18.3199 5.22191 18.3118 5.22191V7.43142C19.506 7.43142 20.5312 6.48362 20.5312 5.245H18.3217ZM18.3118 5.22191H15.525V7.43142H18.3118V5.22191ZM15.525 5.22191C15.5169 5.22191 15.5126 5.22048 15.5106 5.21964C15.5079 5.21853 15.5064 5.21729 15.5061 5.21701C15.5059 5.21675 15.5081 5.21881 15.5106 5.2246C15.5119 5.22755 15.5131 5.23109 15.5139 5.23504C15.5148 5.23905 15.5151 5.24253 15.5151 5.245H13.3056C13.3056 6.48362 14.3308 7.43142 15.525 7.43142V5.22191ZM15.5151 5.245V3.08167H13.3056V5.245H15.5151ZM21.0886 3.08169C21.0886 3.08416 21.0883 3.08764 21.0875 3.09165C21.0866 3.0956 21.0854 3.09914 21.0842 3.10209C21.0816 3.10788 21.0794 3.10994 21.0797 3.10967C21.08 3.1094 21.0814 3.10816 21.0841 3.10705C21.0862 3.10621 21.0904 3.10478 21.0985 3.10478V0.895274C19.9043 0.895274 18.8791 1.84307 18.8791 3.08169H21.0886ZM21.0985 3.10478H23.8853V0.895274H21.0985V3.10478ZM23.8853 3.10478C23.8934 3.10478 23.8977 3.10621 23.8997 3.10705C23.9024 3.10816 23.9039 3.1094 23.9042 3.10967C23.9044 3.10994 23.9022 3.10788 23.8997 3.10209C23.8984 3.09914 23.8972 3.0956 23.8964 3.09165C23.8955 3.08764 23.8952 3.08415 23.8952 3.08169H26.1048C26.1048 1.84307 25.0795 0.895274 23.8853 0.895274V3.10478ZM23.8952 3.08169V5.24502H26.1048V3.08169H23.8952ZM23.8952 5.24502C23.8952 5.24256 23.8955 5.23908 23.8964 5.23506C23.8972 5.23112 23.8984 5.22757 23.8997 5.22463C23.9022 5.21884 23.9044 5.21678 23.9042 5.21704C23.9039 5.21732 23.9024 5.21856 23.8997 5.21967C23.8977 5.22051 23.8934 5.22194 23.8853 5.22194V7.43144C25.0795 7.43144 26.1048 6.48364 26.1048 5.24502H23.8952ZM23.8853 5.22194H21.0985V7.43144H23.8853V5.22194ZM21.0985 5.22194C21.0904 5.22194 21.0862 5.22051 21.0841 5.21967C21.0814 5.21856 21.08 5.21732 21.0797 5.21704C21.0794 5.21678 21.0816 5.21884 21.0842 5.22463C21.0854 5.22757 21.0866 5.23112 21.0875 5.23506C21.0883 5.23908 21.0886 5.24256 21.0886 5.24502H18.8791C18.8791 6.48364 19.9043 7.43144 21.0985 7.43144V5.22194ZM21.0886 5.24502V3.08169H18.8791V5.24502H21.0886ZM21.0886 8.23887C21.0886 8.24134 21.0883 8.24482 21.0875 8.24884C21.0866 8.25278 21.0854 8.25632 21.0842 8.25927C21.0816 8.26506 21.0794 8.26712 21.0797 8.26686C21.08 8.26658 21.0814 8.26534 21.0841 8.26423C21.0862 8.26339 21.0904 8.26196 21.0985 8.26196V6.05246C19.9043 6.05246 18.8791 7.00025 18.8791 8.23887H21.0886ZM21.0985 8.26196H23.8853V6.05246H21.0985V8.26196ZM23.8853 8.26196C23.8934 8.26196 23.8977 8.26339 23.8997 8.26423C23.9024 8.26534 23.9039 8.26658 23.9042 8.26686C23.9044 8.26712 23.9022 8.26506 23.8997 8.25927C23.8984 8.25632 23.8972 8.25278 23.8964 8.24884C23.8955 8.24482 23.8952 8.24134 23.8952 8.23887H26.1048C26.1048 7.00025 25.0795 6.05246 23.8853 6.05246V8.26196ZM23.8952 8.23887V10.4022H26.1048V8.23887H23.8952ZM23.8952 10.4022C23.8952 10.3997 23.8955 10.3963 23.8964 10.3922C23.8972 10.3883 23.8984 10.3848 23.8997 10.3818C23.9022 10.376 23.9044 10.374 23.9042 10.3742C23.9039 10.3745 23.9024 10.3757 23.8997 10.3768C23.8977 10.3777 23.8934 10.3791 23.8853 10.3791V12.5886C25.0795 12.5886 26.1048 11.6408 26.1048 10.4022H23.8952ZM23.8853 10.3791H21.0985V12.5886H23.8853V10.3791ZM21.0985 10.3791C21.0904 10.3791 21.0862 10.3777 21.0841 10.3768C21.0814 10.3757 21.08 10.3745 21.0797 10.3742C21.0794 10.374 21.0816 10.376 21.0842 10.3818C21.0854 10.3848 21.0866 10.3883 21.0875 10.3922C21.0883 10.3963 21.0886 10.3997 21.0886 10.4022H18.8791C18.8791 11.6408 19.9043 12.5886 21.0985 12.5886V10.3791ZM21.0886 10.4022V8.23887H18.8791V10.4022H21.0886Z" fill="black" mask="url(#path-1-outside-1_71_4)"/>
<mask id="path-3-outside-2_71_4" maskUnits="userSpaceOnUse" x="0" y="11.5161" width="27" height="13" fill="black">
<rect fill="white" y="11.5161" width="27" height="13"/>
<path d="M2 19.755C2 19.1576 2.49907 18.6733 3.1147 18.6733H5.90146C6.51709 18.6733 7.01616 19.1576 7.01616 19.755V21.9183C7.01616 22.5157 6.51709 23 5.90146 23H3.1147C2.49907 23 2 22.5157 2 21.9183V19.755Z"/>
<path d="M2 14.5978C2 14.0004 2.49907 13.5161 3.1147 13.5161H5.90146C6.51709 13.5161 7.01616 14.0004 7.01616 14.5978V16.7611C7.01616 17.3585 6.51709 17.8428 5.90146 17.8428H3.1147C2.49907 17.8428 2 17.3585 2 16.7611V14.5978Z"/>
<path d="M7.57351 14.5978C7.57351 14.0004 8.07258 13.5162 8.68822 13.5162H11.475C12.0906 13.5162 12.5897 14.0004 12.5897 14.5978V16.7612C12.5897 17.3585 12.0906 17.8428 11.475 17.8428H8.68822C8.07258 17.8428 7.57351 17.3585 7.57351 16.7612V14.5978Z"/>
<path d="M7.57351 19.755C7.57351 19.1576 8.07258 18.6733 8.68822 18.6733H11.475C12.0906 18.6733 12.5897 19.1576 12.5897 19.755V21.9183C12.5897 22.5157 12.0906 23 11.475 23H8.68822C8.07258 23 7.57351 22.5157 7.57351 21.9183V19.755Z"/>
<path d="M14.4103 19.755C14.4103 19.1576 14.9094 18.6733 15.525 18.6733H18.3118C18.9274 18.6733 19.4265 19.1576 19.4265 19.755V21.9183C19.4265 22.5157 18.9274 23 18.3118 23H15.525C14.9094 23 14.4103 22.5157 14.4103 21.9183V19.755Z"/>
<path d="M14.4103 14.5978C14.4103 14.0004 14.9094 13.5161 15.525 13.5161H18.3118C18.9274 13.5161 19.4265 14.0004 19.4265 14.5978V16.7611C19.4265 17.3585 18.9274 17.8428 18.3118 17.8428H15.525C14.9094 17.8428 14.4103 17.3585 14.4103 16.7611V14.5978Z"/>
<path d="M19.9838 14.5978C19.9838 14.0004 20.4829 13.5162 21.0985 13.5162H23.8853C24.5009 13.5162 25 14.0004 25 14.5978V16.7612C25 17.3585 24.5009 17.8428 23.8853 17.8428H21.0985C20.4829 17.8428 19.9838 17.3585 19.9838 16.7612V14.5978Z"/>
<path d="M19.9838 19.755C19.9838 19.1576 20.4829 18.6733 21.0985 18.6733H23.8853C24.5009 18.6733 25 19.1576 25 19.755V21.9183C25 22.5157 24.5009 23 23.8853 23H21.0985C20.4829 23 19.9838 22.5157 19.9838 21.9183V19.755Z"/>
</mask>
<path d="M7.57351 14.5978C7.57351 14.0004 8.07258 13.5162 8.68822 13.5162H11.475C12.0906 13.5162 12.5897 14.0004 12.5897 14.5978V16.7612C12.5897 17.3585 12.0906 17.8428 11.475 17.8428H8.68822C8.07258 17.8428 7.57351 17.3585 7.57351 16.7612V14.5978Z" fill="white"/>
<path d="M7.57351 19.755C7.57351 19.1576 8.07258 18.6733 8.68822 18.6733H11.475C12.0906 18.6733 12.5897 19.1576 12.5897 19.755V21.9183C12.5897 22.5157 12.0906 23 11.475 23H8.68822C8.07258 23 7.57351 22.5157 7.57351 21.9183V19.755Z" fill="white"/>
<path d="M19.9838 14.5978C19.9838 14.0004 20.4829 13.5162 21.0985 13.5162H23.8853C24.5009 13.5162 25 14.0004 25 14.5978V16.7612C25 17.3585 24.5009 17.8428 23.8853 17.8428H21.0985C20.4829 17.8428 19.9838 17.3585 19.9838 16.7612V14.5978Z" fill="white"/>
<path d="M19.9838 19.755C19.9838 19.1576 20.4829 18.6733 21.0985 18.6733H23.8853C24.5009 18.6733 25 19.1576 25 19.755V21.9183C25 22.5157 24.5009 23 23.8853 23H21.0985C20.4829 23 19.9838 22.5157 19.9838 21.9183V19.755Z" fill="white"/>
<path d="M3.10475 19.755C3.10475 19.7575 3.10447 19.7609 3.10362 19.765C3.10279 19.7689 3.10161 19.7725 3.10033 19.7754C3.0978 19.7812 3.09556 19.7833 3.09583 19.783C3.09612 19.7827 3.09758 19.7815 3.10028 19.7804C3.10232 19.7795 3.10659 19.7781 3.1147 19.7781V17.5686C1.9205 17.5686 0.895249 18.5164 0.895249 19.755H3.10475ZM3.1147 19.7781H5.90146V17.5686H3.1147V19.7781ZM5.90146 19.7781C5.90957 19.7781 5.91384 19.7795 5.91589 19.7804C5.91859 19.7815 5.92005 19.7827 5.92033 19.783C5.92061 19.7832 5.91836 19.7812 5.91584 19.7754C5.91455 19.7725 5.91337 19.7689 5.91254 19.765C5.91169 19.7609 5.91141 19.7575 5.91141 19.755H8.12091C8.12091 18.5164 7.09567 17.5686 5.90146 17.5686V19.7781ZM5.91141 19.755V21.9183H8.12091V19.755H5.91141ZM5.91141 21.9183C5.91141 21.9159 5.91169 21.9124 5.91254 21.9084C5.91337 21.9044 5.91455 21.9009 5.91584 21.8979C5.91836 21.8921 5.92061 21.8901 5.92033 21.8903C5.92005 21.8906 5.91859 21.8919 5.91589 21.893C5.91384 21.8938 5.90957 21.8952 5.90146 21.8952V24.1048C7.09566 24.1048 8.12091 23.157 8.12091 21.9183H5.91141ZM5.90146 21.8952H3.1147V24.1048H5.90146V21.8952ZM3.1147 21.8952C3.10659 21.8952 3.10232 21.8938 3.10028 21.893C3.09758 21.8919 3.09612 21.8906 3.09583 21.8904C3.09556 21.8901 3.0978 21.8921 3.10033 21.8979C3.10161 21.9009 3.10279 21.9044 3.10362 21.9084C3.10447 21.9124 3.10475 21.9159 3.10475 21.9183H0.895249C0.895249 23.157 1.9205 24.1048 3.1147 24.1048V21.8952ZM3.10475 21.9183V19.755H0.895249V21.9183H3.10475ZM3.10475 14.5978C3.10475 14.6003 3.10447 14.6037 3.10362 14.6078C3.10279 14.6117 3.10161 14.6152 3.10033 14.6182C3.0978 14.624 3.09556 14.626 3.09583 14.6258C3.09612 14.6255 3.09758 14.6243 3.10028 14.6232C3.10232 14.6223 3.10659 14.6209 3.1147 14.6209V12.4114C1.9205 12.4114 0.895249 13.3592 0.895249 14.5978H3.10475ZM3.1147 14.6209H5.90146V12.4114H3.1147V14.6209ZM5.90146 14.6209C5.90957 14.6209 5.91384 14.6223 5.91589 14.6232C5.91859 14.6243 5.92005 14.6255 5.92033 14.6258C5.92061 14.626 5.91836 14.624 5.91584 14.6182C5.91455 14.6152 5.91337 14.6117 5.91254 14.6078C5.91169 14.6037 5.91141 14.6003 5.91141 14.5978H8.12091C8.12091 13.3592 7.09567 12.4114 5.90146 12.4114V14.6209ZM5.91141 14.5978V16.7611H8.12091V14.5978H5.91141ZM5.91141 16.7611C5.91141 16.7587 5.91169 16.7552 5.91254 16.7512C5.91337 16.7472 5.91455 16.7437 5.91584 16.7407C5.91836 16.7349 5.92061 16.7329 5.92033 16.7331C5.92005 16.7334 5.91859 16.7347 5.91589 16.7358C5.91384 16.7366 5.90957 16.738 5.90146 16.738V18.9475C7.09566 18.9475 8.12091 17.9997 8.12091 16.7611H5.91141ZM5.90146 16.738H3.1147V18.9475H5.90146V16.738ZM3.1147 16.738C3.10659 16.738 3.10232 16.7366 3.10028 16.7358C3.09758 16.7347 3.09612 16.7334 3.09583 16.7331C3.09556 16.7329 3.0978 16.7349 3.10033 16.7407C3.10161 16.7437 3.10279 16.7472 3.10362 16.7512C3.10447 16.7552 3.10475 16.7587 3.10475 16.7611H0.895249C0.895249 17.9997 1.9205 18.9475 3.1147 18.9475V16.738ZM3.10475 16.7611V14.5978H0.895249V16.7611H3.10475ZM8.67826 14.5978C8.67826 14.6003 8.67798 14.6038 8.67714 14.6078C8.67631 14.6117 8.67512 14.6153 8.67384 14.6182C8.67131 14.624 8.66907 14.6261 8.66934 14.6258C8.66963 14.6255 8.67109 14.6243 8.67379 14.6232C8.67584 14.6223 8.6801 14.6209 8.68822 14.6209V12.4114C7.49401 12.4114 6.46876 13.3592 6.46876 14.5978H8.67826ZM8.68822 14.6209H11.475V12.4114H8.68822V14.6209ZM11.475 14.6209C11.4831 14.6209 11.4874 14.6223 11.4894 14.6232C11.4921 14.6243 11.4936 14.6255 11.4938 14.6258C11.4941 14.6261 11.4919 14.624 11.4894 14.6182C11.4881 14.6153 11.4869 14.6117 11.4861 14.6078C11.4852 14.6038 11.4849 14.6003 11.4849 14.5978H13.6944C13.6944 13.3592 12.6692 12.4114 11.475 12.4114V14.6209ZM11.4849 14.5978V16.7612H13.6944V14.5978H11.4849ZM11.4849 16.7612C11.4849 16.7587 11.4852 16.7552 11.4861 16.7512C11.4869 16.7472 11.4881 16.7437 11.4894 16.7408C11.4919 16.735 11.4941 16.7329 11.4938 16.7332C11.4936 16.7334 11.4921 16.7347 11.4894 16.7358C11.4874 16.7366 11.4831 16.7381 11.475 16.7381V18.9476C12.6692 18.9476 13.6944 17.9998 13.6944 16.7612H11.4849ZM11.475 16.7381H8.68822V18.9476H11.475V16.7381ZM8.68822 16.7381C8.6801 16.7381 8.67584 16.7366 8.67379 16.7358C8.67109 16.7347 8.66963 16.7334 8.66934 16.7332C8.66907 16.7329 8.67131 16.735 8.67384 16.7408C8.67512 16.7437 8.67631 16.7472 8.67714 16.7512C8.67798 16.7552 8.67826 16.7587 8.67826 16.7612H6.46876C6.46876 17.9998 7.49401 18.9476 8.68822 18.9476V16.7381ZM8.67826 16.7612V14.5978H6.46876V16.7612H8.67826ZM8.67826 19.755C8.67826 19.7575 8.67798 19.7609 8.67714 19.765C8.67631 19.7689 8.67512 19.7725 8.67384 19.7754C8.67131 19.7812 8.66907 19.7833 8.66934 19.783C8.66963 19.7827 8.67109 19.7815 8.67379 19.7804C8.67584 19.7795 8.6801 19.7781 8.68822 19.7781V17.5686C7.49401 17.5686 6.46876 18.5164 6.46876 19.755H8.67826ZM8.68822 19.7781H11.475V17.5686H8.68822V19.7781ZM11.475 19.7781C11.4831 19.7781 11.4874 19.7795 11.4894 19.7804C11.4921 19.7815 11.4936 19.7827 11.4938 19.783C11.4941 19.7832 11.4919 19.7812 11.4894 19.7754C11.4881 19.7725 11.4869 19.7689 11.4861 19.765C11.4852 19.7609 11.4849 19.7575 11.4849 19.755H13.6944C13.6944 18.5164 12.6692 17.5686 11.475 17.5686V19.7781ZM11.4849 19.755V21.9183H13.6944V19.755H11.4849ZM11.4849 21.9183C11.4849 21.9159 11.4852 21.9124 11.4861 21.9084C11.4869 21.9044 11.4881 21.9009 11.4894 21.8979C11.4919 21.8921 11.4941 21.8901 11.4938 21.8903C11.4936 21.8906 11.4921 21.8919 11.4894 21.893C11.4874 21.8938 11.4831 21.8952 11.475 21.8952V24.1048C12.6692 24.1048 13.6944 23.157 13.6944 21.9183H11.4849ZM11.475 21.8952H8.68822V24.1048H11.475V21.8952ZM8.68822 21.8952C8.6801 21.8952 8.67584 21.8938 8.67379 21.893C8.67109 21.8919 8.66963 21.8906 8.66934 21.8904C8.66907 21.8901 8.67131 21.8921 8.67384 21.8979C8.67512 21.9009 8.67631 21.9044 8.67714 21.9084C8.67798 21.9124 8.67826 21.9159 8.67826 21.9183H6.46876C6.46876 23.157 7.49401 24.1048 8.68822 24.1048V21.8952ZM8.67826 21.9183V19.755H6.46876V21.9183H8.67826ZM15.5151 19.755C15.5151 19.7575 15.5148 19.7609 15.5139 19.765C15.5131 19.7689 15.5119 19.7725 15.5106 19.7754C15.5081 19.7812 15.5059 19.7833 15.5062 19.783C15.5064 19.7827 15.5079 19.7815 15.5106 19.7804C15.5126 19.7795 15.5169 19.7781 15.525 19.7781V17.5686C14.3308 17.5686 13.3056 18.5164 13.3056 19.755H15.5151ZM15.525 19.7781H18.3118V17.5686H15.525V19.7781ZM18.3118 19.7781C18.3199 19.7781 18.3242 19.7795 18.3262 19.7804C18.3289 19.7815 18.3304 19.7827 18.3307 19.783C18.3309 19.7832 18.3287 19.7812 18.3262 19.7754C18.3249 19.7725 18.3237 19.7689 18.3229 19.765C18.322 19.7609 18.3217 19.7575 18.3217 19.755H20.5312C20.5312 18.5164 19.506 17.5686 18.3118 17.5686V19.7781ZM18.3217 19.755V21.9183H20.5312V19.755H18.3217ZM18.3217 21.9183C18.3217 21.9159 18.322 21.9124 18.3229 21.9084C18.3237 21.9044 18.3249 21.9009 18.3262 21.8979C18.3287 21.8921 18.3309 21.8901 18.3307 21.8903C18.3304 21.8906 18.3289 21.8919 18.3262 21.893C18.3242 21.8938 18.3199 21.8952 18.3118 21.8952V24.1048C19.506 24.1048 20.5312 23.157 20.5312 21.9183H18.3217ZM18.3118 21.8952H15.525V24.1048H18.3118V21.8952ZM15.525 21.8952C15.5169 21.8952 15.5126 21.8938 15.5106 21.893C15.5079 21.8919 15.5064 21.8906 15.5062 21.8904C15.5059 21.8901 15.5081 21.8921 15.5106 21.8979C15.5119 21.9009 15.5131 21.9044 15.5139 21.9084C15.5148 21.9124 15.5151 21.9159 15.5151 21.9183H13.3056C13.3056 23.157 14.3308 24.1048 15.525 24.1048V21.8952ZM15.5151 21.9183V19.755H13.3056V21.9183H15.5151ZM15.5151 14.5978C15.5151 14.6003 15.5148 14.6037 15.5139 14.6078C15.5131 14.6117 15.5119 14.6152 15.5106 14.6182C15.5081 14.624 15.5059 14.626 15.5061 14.6258C15.5064 14.6255 15.5079 14.6243 15.5106 14.6232C15.5126 14.6223 15.5169 14.6209 15.525 14.6209V12.4114C14.3308 12.4114 13.3056 13.3592 13.3056 14.5978H15.5151ZM15.525 14.6209H18.3118V12.4114H15.525V14.6209ZM18.3118 14.6209C18.3199 14.6209 18.3241 14.6223 18.3262 14.6232C18.3289 14.6243 18.3304 14.6255 18.3306 14.6258C18.3309 14.626 18.3287 14.624 18.3261 14.6182C18.3249 14.6152 18.3237 14.6117 18.3228 14.6078C18.322 14.6037 18.3217 14.6003 18.3217 14.5978H20.5312C20.5312 13.3592 19.506 12.4114 18.3118 12.4114V14.6209ZM18.3217 14.5978V16.7611H20.5312V14.5978H18.3217ZM18.3217 16.7611C18.3217 16.7587 18.322 16.7552 18.3228 16.7512C18.3237 16.7472 18.3249 16.7437 18.3261 16.7407C18.3287 16.7349 18.3309 16.7329 18.3306 16.7331C18.3304 16.7334 18.3289 16.7347 18.3262 16.7358C18.3241 16.7366 18.3199 16.738 18.3118 16.738V18.9475C19.506 18.9475 20.5312 17.9997 20.5312 16.7611H18.3217ZM18.3118 16.738H15.525V18.9475H18.3118V16.738ZM15.525 16.738C15.5169 16.738 15.5126 16.7366 15.5106 16.7358C15.5079 16.7347 15.5064 16.7334 15.5061 16.7331C15.5059 16.7329 15.5081 16.7349 15.5106 16.7407C15.5119 16.7437 15.5131 16.7472 15.5139 16.7512C15.5148 16.7552 15.5151 16.7587 15.5151 16.7611H13.3056C13.3056 17.9997 14.3308 18.9475 15.525 18.9475V16.738ZM15.5151 16.7611V14.5978H13.3056V16.7611H15.5151ZM21.0886 14.5978C21.0886 14.6003 21.0883 14.6038 21.0875 14.6078C21.0866 14.6117 21.0854 14.6153 21.0842 14.6182C21.0816 14.624 21.0794 14.6261 21.0797 14.6258C21.08 14.6255 21.0814 14.6243 21.0841 14.6232C21.0862 14.6223 21.0904 14.6209 21.0985 14.6209V12.4114C19.9043 12.4114 18.8791 13.3592 18.8791 14.5978H21.0886ZM21.0985 14.6209H23.8853V12.4114H21.0985V14.6209ZM23.8853 14.6209C23.8934 14.6209 23.8977 14.6223 23.8997 14.6232C23.9024 14.6243 23.9039 14.6255 23.9042 14.6258C23.9044 14.6261 23.9022 14.624 23.8997 14.6182C23.8984 14.6153 23.8972 14.6117 23.8964 14.6078C23.8955 14.6038 23.8952 14.6003 23.8952 14.5978H26.1048C26.1048 13.3592 25.0795 12.4114 23.8853 12.4114V14.6209ZM23.8952 14.5978V16.7612H26.1048V14.5978H23.8952ZM23.8952 16.7612C23.8952 16.7587 23.8955 16.7552 23.8964 16.7512C23.8972 16.7472 23.8984 16.7437 23.8997 16.7408C23.9022 16.735 23.9044 16.7329 23.9042 16.7332C23.9039 16.7334 23.9024 16.7347 23.8997 16.7358C23.8977 16.7366 23.8934 16.7381 23.8853 16.7381V18.9476C25.0795 18.9476 26.1048 17.9998 26.1048 16.7612H23.8952ZM23.8853 16.7381H21.0985V18.9476H23.8853V16.7381ZM21.0985 16.7381C21.0904 16.7381 21.0862 16.7366 21.0841 16.7358C21.0814 16.7347 21.08 16.7334 21.0797 16.7332C21.0794 16.7329 21.0816 16.735 21.0842 16.7408C21.0854 16.7437 21.0866 16.7472 21.0875 16.7512C21.0883 16.7552 21.0886 16.7587 21.0886 16.7612H18.8791C18.8791 17.9998 19.9043 18.9476 21.0985 18.9476V16.7381ZM21.0886 16.7612V14.5978H18.8791V16.7612H21.0886ZM21.0886 19.755C21.0886 19.7575 21.0883 19.7609 21.0875 19.765C21.0866 19.7689 21.0854 19.7725 21.0842 19.7754C21.0816 19.7812 21.0794 19.7832 21.0797 19.783C21.08 19.7827 21.0814 19.7815 21.0841 19.7804C21.0862 19.7795 21.0904 19.7781 21.0985 19.7781V17.5686C19.9043 17.5686 18.8791 18.5164 18.8791 19.755H21.0886ZM21.0985 19.7781H23.8853V17.5686H21.0985V19.7781ZM23.8853 19.7781C23.8934 19.7781 23.8977 19.7795 23.8997 19.7804C23.9024 19.7815 23.9039 19.7827 23.9042 19.783C23.9044 19.7832 23.9022 19.7812 23.8997 19.7754C23.8984 19.7725 23.8972 19.7689 23.8964 19.765C23.8955 19.7609 23.8952 19.7575 23.8952 19.755H26.1048C26.1048 18.5164 25.0795 17.5686 23.8853 17.5686V19.7781ZM23.8952 19.755V21.9183H26.1048V19.755H23.8952ZM23.8952 21.9183C23.8952 21.9159 23.8955 21.9124 23.8964 21.9084C23.8972 21.9044 23.8984 21.9009 23.8997 21.8979C23.9022 21.8921 23.9044 21.8901 23.9042 21.8904C23.9039 21.8906 23.9024 21.8919 23.8997 21.893C23.8977 21.8938 23.8934 21.8952 23.8853 21.8952V24.1048C25.0795 24.1048 26.1048 23.157 26.1048 21.9183H23.8952ZM23.8853 21.8952H21.0985V24.1048H23.8853V21.8952ZM21.0985 21.8952C21.0904 21.8952 21.0862 21.8938 21.0841 21.893C21.0814 21.8919 21.08 21.8906 21.0797 21.8904C21.0794 21.8901 21.0816 21.8921 21.0842 21.8979C21.0854 21.9009 21.0866 21.9044 21.0875 21.9084C21.0883 21.9124 21.0886 21.9159 21.0886 21.9183H18.8791C18.8791 23.157 19.9043 24.1048 21.0985 24.1048V21.8952ZM21.0886 21.9183V19.755H18.8791V21.9183H21.0886Z" fill="black" mask="url(#path-3-outside-2_71_4)"/>
</svg>
