<svg width="1440" height="1024" viewBox="0 0 1440 1024" fill="none" xmlns="http://www.w3.org/2000/svg">
<path fill-rule="evenodd" clip-rule="evenodd" d="M121.202 322.653C131.942 321.669 143.964 321.001 153.008 326.812C162.308 332.788 164.682 345.129 170.607 354.399C175.389 361.882 181.051 368.629 184.856 376.641C188.615 384.559 189.373 393.394 192.925 401.405C197.791 412.378 211.833 421.085 209.8 432.896C207.877 444.073 193.224 448.276 183.757 454.676C175.876 460.005 166.924 463.076 158.524 467.564C150.517 471.843 143.656 478.081 134.963 480.749C125.925 483.523 116.403 483.233 106.941 483.397C96.181 483.584 84.633 486.476 74.972 481.789C65.3808 477.135 60.4822 466.534 54.3533 457.882C48.35 449.408 39.8304 441.4 39.0516 431.083C38.2526 420.499 46.9551 411.611 50.0944 401.461C52.701 393.034 54.7626 384.644 56.1099 375.933C57.9133 364.273 51.9534 350.183 59.4453 341.003C66.4757 332.389 80.8803 335.627 91.6029 332.441C101.652 329.455 110.754 323.611 121.202 322.653Z" fill="url(#paint0_linear_37_20)" fill-opacity="0.2"/>
<path fill-rule="evenodd" clip-rule="evenodd" d="M483.202 271.653C493.942 270.669 505.964 270.001 515.008 275.812C524.308 281.788 526.682 294.129 532.607 303.399C537.389 310.882 543.051 317.629 546.856 325.641C550.615 333.559 551.373 342.394 554.925 350.405C559.791 361.378 573.833 370.085 571.8 381.896C569.877 393.073 555.224 397.276 545.757 403.676C537.876 409.005 528.924 412.076 520.524 416.564C512.517 420.843 505.656 427.081 496.963 429.749C487.925 432.523 478.403 432.233 468.941 432.397C458.181 432.584 446.633 435.476 436.972 430.789C427.381 426.135 422.482 415.534 416.353 406.882C410.35 398.408 401.83 390.4 401.052 380.083C400.253 369.499 408.955 360.611 412.094 350.461C414.701 342.034 416.763 333.644 418.11 324.933C419.913 313.273 413.953 299.183 421.445 290.003C428.476 281.389 442.88 284.627 453.603 281.441C463.652 278.455 472.754 272.611 483.202 271.653Z" fill="url(#paint1_linear_37_20)" fill-opacity="0.2"/>
<path fill-rule="evenodd" clip-rule="evenodd" d="M763.202 403.653C773.942 402.669 785.964 402.001 795.008 407.812C804.308 413.788 806.682 426.129 812.607 435.399C817.389 442.882 823.051 449.629 826.856 457.641C830.615 465.559 831.373 474.394 834.925 482.405C839.791 493.378 853.833 502.085 851.8 513.896C849.877 525.073 835.224 529.276 825.757 535.676C817.876 541.005 808.924 544.076 800.524 548.564C792.517 552.843 785.656 559.081 776.963 561.749C767.925 564.523 758.403 564.233 748.941 564.397C738.181 564.584 726.633 567.476 716.972 562.789C707.381 558.135 702.482 547.534 696.353 538.882C690.35 530.408 681.83 522.4 681.052 512.083C680.253 501.499 688.955 492.611 692.094 482.461C694.701 474.034 696.763 465.644 698.11 456.933C699.913 445.273 693.953 431.183 701.445 422.003C708.476 413.389 722.88 416.627 733.603 413.441C743.652 410.455 752.754 404.611 763.202 403.653Z" fill="url(#paint2_linear_37_20)" fill-opacity="0.2"/>
<path fill-rule="evenodd" clip-rule="evenodd" d="M1167.2 -53.3468C1177.94 -54.3314 1189.96 -54.9991 1199.01 -49.188C1208.31 -43.2123 1210.68 -30.8705 1216.61 -21.6008C1221.39 -14.1182 1227.05 -7.37127 1230.86 0.641136C1234.62 8.55912 1235.37 17.3941 1238.93 25.4051C1243.79 36.3781 1257.83 45.085 1255.8 56.8963C1253.88 68.0732 1239.22 72.2762 1229.76 78.6763C1221.88 84.0052 1212.92 87.076 1204.52 91.5645C1196.52 95.843 1189.66 102.081 1180.96 104.749C1171.92 107.523 1162.4 107.233 1152.94 107.397C1142.18 107.584 1130.63 110.476 1120.97 105.789C1111.38 101.135 1106.48 90.5337 1100.35 81.8821C1094.35 73.4076 1085.83 65.4003 1085.05 55.0829C1084.25 44.4989 1092.96 35.6109 1096.09 25.4614C1098.7 17.0341 1100.76 8.64388 1102.11 -0.0673141C1103.91 -11.7271 1097.95 -25.8166 1105.45 -34.9967C1112.48 -43.6114 1126.88 -40.3726 1137.6 -43.5587C1147.65 -46.5446 1156.75 -52.389 1167.2 -53.3468Z" fill="url(#paint3_linear_37_20)" fill-opacity="0.2"/>
<path fill-rule="evenodd" clip-rule="evenodd" d="M1157.68 198.046C1171.14 199.084 1177 217.204 1189.26 222.845C1200.66 228.086 1214.94 223.503 1225.97 229.459C1237.34 235.592 1246.13 245.936 1252.67 257.069C1259.35 268.421 1262.46 281.448 1264.2 294.5C1265.97 307.78 1267.62 321.763 1262.98 334.332C1258.38 346.813 1246.55 354.823 1238.14 365.128C1229.96 375.139 1225.57 389.784 1213.65 394.76C1201.32 399.9 1187.3 390.362 1174.04 391.867C1161.8 393.255 1151.52 403.041 1139.2 403.204C1126.52 403.372 1112.35 401.302 1102.92 392.81C1093.23 384.082 1095.3 367.797 1087.95 357.031C1080.98 346.834 1064.68 343.671 1061.24 331.811C1057.8 319.97 1070.75 308.597 1070.31 296.275C1069.79 281.84 1055.22 269.045 1058.47 254.972C1061.51 241.836 1074.75 232.917 1086.49 226.279C1097.78 219.89 1112.09 222.604 1124.15 217.82C1136.32 212.996 1144.63 197.039 1157.68 198.046Z" fill="url(#paint4_linear_37_20)" fill-opacity="0.2"/>
<path fill-rule="evenodd" clip-rule="evenodd" d="M999.68 633.046C1013.14 634.084 1019 652.204 1031.26 657.845C1042.66 663.086 1056.94 658.503 1067.97 664.459C1079.34 670.592 1088.13 680.936 1094.67 692.069C1101.35 703.421 1104.46 716.448 1106.2 729.5C1107.97 742.78 1109.62 756.763 1104.98 769.332C1100.38 781.813 1088.55 789.823 1080.14 800.128C1071.96 810.139 1067.57 824.784 1055.65 829.76C1043.32 834.9 1029.3 825.362 1016.04 826.867C1003.8 828.255 993.518 838.041 981.205 838.204C968.517 838.372 954.349 836.302 944.921 827.81C935.232 819.082 937.303 802.797 929.946 792.031C922.979 781.834 906.681 778.671 903.238 766.811C899.8 754.97 912.75 743.597 912.306 731.275C911.787 716.84 897.22 704.045 900.473 689.972C903.51 676.836 916.755 667.917 928.489 661.279C939.784 654.89 954.087 657.604 966.15 652.82C978.315 647.996 986.631 632.039 999.68 633.046Z" fill="url(#paint5_linear_37_20)" fill-opacity="0.2"/>
<path fill-rule="evenodd" clip-rule="evenodd" d="M941.68 892.046C955.14 893.084 960.998 911.204 973.263 916.845C984.655 922.086 998.936 917.503 1009.97 923.459C1021.34 929.592 1030.13 939.936 1036.67 951.069C1043.35 962.421 1046.46 975.448 1048.2 988.5C1049.97 1001.78 1051.62 1015.76 1046.98 1028.33C1042.38 1040.81 1030.55 1048.82 1022.14 1059.13C1013.96 1069.14 1009.57 1083.78 997.646 1088.76C985.323 1093.9 971.303 1084.36 958.036 1085.87C945.799 1087.26 935.518 1097.04 923.205 1097.2C910.517 1097.37 896.349 1095.3 886.921 1086.81C877.232 1078.08 879.303 1061.8 871.946 1051.03C864.979 1040.83 848.681 1037.67 845.238 1025.81C841.8 1013.97 854.75 1002.6 854.306 990.275C853.787 975.84 839.22 963.045 842.473 948.972C845.51 935.836 858.755 926.917 870.489 920.279C881.784 913.89 896.087 916.604 908.15 911.82C920.315 906.996 928.631 891.039 941.68 892.046Z" fill="url(#paint6_linear_37_20)" fill-opacity="0.2"/>
<path fill-rule="evenodd" clip-rule="evenodd" d="M467.68 619.046C481.14 620.084 486.998 638.204 499.263 643.845C510.655 649.086 524.936 644.503 535.971 650.459C547.335 656.592 556.13 666.936 562.674 678.069C569.347 689.421 572.461 702.448 574.203 715.5C575.975 728.78 577.623 742.763 572.984 755.332C568.377 767.813 556.549 775.823 548.135 786.128C539.962 796.139 535.574 810.784 523.646 815.76C511.323 820.9 497.303 811.362 484.036 812.867C471.799 814.255 461.518 824.041 449.205 824.204C436.517 824.372 422.349 822.302 412.921 813.81C403.232 805.082 405.303 788.797 397.946 778.031C390.979 767.834 374.681 764.671 371.238 752.811C367.8 740.97 380.75 729.597 380.306 717.275C379.787 702.84 365.22 690.045 368.473 675.972C371.51 662.836 384.755 653.917 396.489 647.279C407.784 640.89 422.087 643.604 434.15 638.82C446.315 633.996 454.631 618.039 467.68 619.046Z" fill="url(#paint7_linear_37_20)" fill-opacity="0.2"/>
<path fill-rule="evenodd" clip-rule="evenodd" d="M-69.3203 650.046C-55.86 651.084 -50.0022 669.204 -37.7372 674.845C-26.3447 680.086 -12.064 675.503 -1.02873 681.459C10.3354 687.592 19.1304 697.936 25.6742 709.069C32.3467 720.421 35.4613 733.448 37.2028 746.5C38.9748 759.78 40.6226 773.763 35.9836 786.332C31.3773 798.813 19.549 806.823 11.1353 817.128C2.96159 827.139 -1.42628 841.784 -13.3539 846.76C-25.677 851.9 -39.6972 842.362 -52.9644 843.867C-65.2005 845.255 -75.4818 855.041 -87.7954 855.204C-100.483 855.372 -114.651 853.302 -124.079 844.81C-133.768 836.082 -131.697 819.797 -139.054 809.031C-146.021 798.834 -162.319 795.671 -165.762 783.811C-169.2 771.97 -156.25 760.597 -156.694 748.275C-157.213 733.84 -171.78 721.045 -168.527 706.972C-165.49 693.836 -152.245 684.917 -140.511 678.279C-129.216 671.89 -114.913 674.604 -102.85 669.82C-90.6849 664.996 -82.3685 649.039 -69.3203 650.046Z" fill="url(#paint8_linear_37_20)" fill-opacity="0.2"/>
<path fill-rule="evenodd" clip-rule="evenodd" d="M483.68 -107.954C497.14 -106.916 502.998 -88.7963 515.263 -83.1546C526.655 -77.9143 540.936 -82.4973 551.971 -76.5414C563.335 -70.4081 572.13 -60.0635 578.674 -48.9308C585.347 -37.5792 588.461 -24.5517 590.203 -11.4999C591.975 1.7801 593.623 15.7635 588.984 28.3324C584.377 40.8129 572.549 48.8233 564.135 59.1281C555.962 69.139 551.574 83.784 539.646 88.7596C527.323 93.9002 513.303 84.3624 500.036 85.8674C487.799 87.2554 477.518 97.0407 465.205 97.2038C452.517 97.3719 438.349 95.3023 428.921 86.8096C419.232 78.0824 421.303 61.797 413.946 51.031C406.979 40.8344 390.681 37.6711 387.238 25.811C383.8 13.9699 396.75 2.59663 396.306 -9.72546C395.787 -24.1605 381.22 -36.9549 384.473 -51.028C387.51 -64.1637 400.755 -73.0831 412.489 -79.7212C423.784 -86.1104 438.087 -83.3956 450.15 -88.1795C462.315 -93.0041 470.631 -108.961 483.68 -107.954Z" fill="url(#paint9_linear_37_20)" fill-opacity="0.2"/>
<path fill-rule="evenodd" clip-rule="evenodd" d="M1342.68 501.046C1356.14 502.084 1362 520.204 1374.26 525.845C1385.66 531.086 1399.94 526.503 1410.97 532.459C1422.34 538.592 1431.13 548.936 1437.67 560.069C1444.35 571.421 1447.46 584.448 1449.2 597.5C1450.97 610.78 1452.62 624.763 1447.98 637.332C1443.38 649.813 1431.55 657.823 1423.14 668.128C1414.96 678.139 1410.57 692.784 1398.65 697.76C1386.32 702.9 1372.3 693.362 1359.04 694.867C1346.8 696.255 1336.52 706.041 1324.2 706.204C1311.52 706.372 1297.35 704.302 1287.92 695.81C1278.23 687.082 1280.3 670.797 1272.95 660.031C1265.98 649.834 1249.68 646.671 1246.24 634.811C1242.8 622.97 1255.75 611.597 1255.31 599.275C1254.79 584.84 1240.22 572.045 1243.47 557.972C1246.51 544.836 1259.75 535.917 1271.49 529.279C1282.78 522.89 1297.09 525.604 1309.15 520.82C1321.32 515.996 1329.63 500.039 1342.68 501.046Z" fill="url(#paint10_linear_37_20)" fill-opacity="0.2"/>
<defs>
<linearGradient id="paint0_linear_37_20" x1="124.5" y1="322" x2="124.5" y2="484.45" gradientUnits="userSpaceOnUse">
<stop stop-color="#8B77C7"/>
<stop offset="1" stop-color="#9379E4" stop-opacity="0.73"/>
</linearGradient>
<linearGradient id="paint1_linear_37_20" x1="486.5" y1="271" x2="486.5" y2="433.45" gradientUnits="userSpaceOnUse">
<stop stop-color="#8B77C7"/>
<stop offset="1" stop-color="#9379E4" stop-opacity="0.73"/>
</linearGradient>
<linearGradient id="paint2_linear_37_20" x1="766.5" y1="403" x2="766.5" y2="565.45" gradientUnits="userSpaceOnUse">
<stop stop-color="#8B77C7"/>
<stop offset="1" stop-color="#9379E4" stop-opacity="0.73"/>
</linearGradient>
<linearGradient id="paint3_linear_37_20" x1="1170.5" y1="-54" x2="1170.5" y2="108.45" gradientUnits="userSpaceOnUse">
<stop stop-color="#8B77C7"/>
<stop offset="1" stop-color="#9379E4" stop-opacity="0.73"/>
</linearGradient>
<linearGradient id="paint4_linear_37_20" x1="1162" y1="198" x2="1162" y2="403.213" gradientUnits="userSpaceOnUse">
<stop stop-color="#9D86E6"/>
<stop offset="1" stop-color="#5738B6"/>
</linearGradient>
<linearGradient id="paint5_linear_37_20" x1="1004" y1="633" x2="1004" y2="838.213" gradientUnits="userSpaceOnUse">
<stop stop-color="#9378E7"/>
<stop offset="1" stop-color="#521FEB"/>
</linearGradient>
<linearGradient id="paint6_linear_37_20" x1="946" y1="892" x2="946" y2="1097.21" gradientUnits="userSpaceOnUse">
<stop stop-color="#756B95"/>
<stop offset="1" stop-color="#4514DC"/>
</linearGradient>
<linearGradient id="paint7_linear_37_20" x1="472" y1="619" x2="472" y2="824.213" gradientUnits="userSpaceOnUse">
<stop stop-color="#7F5AF0"/>
<stop offset="0.557292" stop-color="#2A2539"/>
<stop offset="1" stop-color="#160744"/>
</linearGradient>
<linearGradient id="paint8_linear_37_20" x1="-65" y1="650" x2="-65" y2="855.213" gradientUnits="userSpaceOnUse">
<stop stop-color="#7F5AF0"/>
<stop offset="0.557292" stop-color="#2A2539"/>
<stop offset="1" stop-color="#160744"/>
</linearGradient>
<linearGradient id="paint9_linear_37_20" x1="488" y1="-108" x2="488" y2="97.2131" gradientUnits="userSpaceOnUse">
<stop stop-color="#9378E7"/>
<stop offset="1" stop-color="#521FEB"/>
</linearGradient>
<linearGradient id="paint10_linear_37_20" x1="1347" y1="501" x2="1347" y2="706.213" gradientUnits="userSpaceOnUse">
<stop stop-color="#9378E7"/>
<stop offset="1" stop-color="#521FEB"/>
</linearGradient>
</defs>
</svg>
