<svg width="29" height="28" viewBox="0 0 29 28" fill="none" xmlns="http://www.w3.org/2000/svg">
<path d="M14.4299 15.8623C14.2351 15.8623 14.0813 15.8008 13.9685 15.6778C13.8659 15.5445 13.8147 15.3702 13.8147 15.1548C13.8147 14.837 13.8505 14.5396 13.9223 14.2628C14.0044 13.9757 14.1325 13.6885 14.3068 13.4014C14.4812 13.1143 14.7119 12.8118 14.999 12.494C15.2143 12.2479 15.3835 12.0326 15.5065 11.848C15.6398 11.6532 15.7321 11.4686 15.7834 11.2943C15.8449 11.12 15.8757 10.9405 15.8757 10.756C15.8757 10.4176 15.7526 10.151 15.5065 9.95617C15.2604 9.76135 14.9118 9.66394 14.4606 9.66394C14.0505 9.66394 13.6762 9.72034 13.3379 9.83313C13.0097 9.93567 12.6765 10.0843 12.3381 10.2792C12.1125 10.4125 11.9075 10.474 11.7229 10.4637C11.5486 10.4432 11.405 10.3766 11.2922 10.2638C11.1794 10.151 11.1077 10.0126 11.0769 9.84851C11.0461 9.68445 11.0718 9.51526 11.1538 9.34095C11.2358 9.16663 11.3845 9.0077 11.5998 8.86415C12.0203 8.58729 12.5022 8.37709 13.0456 8.23354C13.5891 8.07973 14.1018 8.00283 14.5837 8.00283C15.2297 8.00283 15.7936 8.11049 16.2756 8.32582C16.7677 8.54115 17.1471 8.83851 17.4137 9.2179C17.6906 9.59729 17.829 10.0433 17.829 10.556C17.829 10.8739 17.7829 11.1764 17.6906 11.4635C17.5983 11.7403 17.4496 12.0223 17.2445 12.3094C17.0395 12.5863 16.7575 12.8888 16.3986 13.2169C16.0807 13.504 15.8244 13.7654 15.6296 14.0013C15.445 14.2371 15.3066 14.4627 15.2143 14.678C15.1323 14.8934 15.0759 15.1241 15.0451 15.3702C15.0349 15.5137 14.9733 15.6316 14.8605 15.7239C14.758 15.8162 14.6145 15.8623 14.4299 15.8623ZM14.3991 19.0769C14.0505 19.0769 13.7685 18.9692 13.5532 18.7539C13.3481 18.5386 13.2456 18.2617 13.2456 17.9234C13.2456 17.5952 13.3481 17.3286 13.5532 17.1236C13.7685 16.9082 14.0505 16.8006 14.3991 16.8006C14.758 16.8006 15.0349 16.9082 15.2297 17.1236C15.4348 17.3286 15.5373 17.5952 15.5373 17.9234C15.5373 18.2617 15.4348 18.5386 15.2297 18.7539C15.0349 18.9692 14.758 19.0769 14.3991 19.0769Z" fill="#16161A"/>
<path d="M27.2 13.5C27.2 19.9324 21.7677 25.2 15 25.2C8.23226 25.2 2.8 19.9324 2.8 13.5C2.8 7.06755 8.23226 1.8 15 1.8C21.7677 1.8 27.2 7.06755 27.2 13.5Z" stroke="black" stroke-width="1.6"/>
</svg>
